<?xml version="1.0" standalone="no"?>
<!DOCTYPE svg PUBLIC "-//W3C//DTD SVG 1.1//EN" "http://www.w3.org/Graphics/SVG/1.1/DTD/svg11.dtd" >
<!--
2013-9-30: Created.
-->
<svg>
<metadata>
Created by iconfont
</metadata>
<defs>

<font id="iconfont" horiz-adv-x="1024" >
  <font-face
    font-family="iconfont"
    font-weight="500"
    font-stretch="normal"
    units-per-em="1024"
    ascent="896"
    descent="-128"
  />
    <missing-glyph />
    
    <glyph glyph-name="x" unicode="x" horiz-adv-x="1001"
d="M281 543q-27 -1 -53 -1h-83q-18 0 -36.5 -6t-32.5 -18.5t-23 -32t-9 -45.5v-76h912v41q0 16 -0.5 30t-0.5 18q0 13 -5 29t-17 29.5t-31.5 22.5t-49.5 9h-133v-97h-438v97zM955 310v-52q0 -23 0.5 -52t0.5 -58t-10.5 -47.5t-26 -30t-33 -16t-31.5 -4.5q-14 -1 -29.5 -0.5
t-29.5 0.5h-32l-45 128h-439l-44 -128h-29h-34q-20 0 -45 1q-25 0 -41 9.5t-25.5 23t-13.5 29.5t-4 30v167h911zM163 247q-12 0 -21 -8.5t-9 -21.5t9 -21.5t21 -8.5q13 0 22 8.5t9 21.5t-9 21.5t-22 8.5zM316 123q-8 -26 -14 -48q-5 -19 -10.5 -37t-7.5 -25t-3 -15t1 -14.5
t9.5 -10.5t21.5 -4h37h67h81h80h64h36q23 0 34 12t2 38q-5 13 -9.5 30.5t-9.5 34.5q-5 19 -11 39h-368zM336 498v228q0 11 2.5 23t10 21.5t20.5 15.5t34 6h188q31 0 51.5 -14.5t20.5 -52.5v-227h-327z" />
    

    
    <glyph glyph-name="zanting" unicode="&#58881;" d="M740.5967 649.4257c33.9282 0 61.698-34.1053 61.698-75.7924v-547.971072c0-41.686-27.7699-75.7821-61.698-75.7821h-30.839808c-33.9292 0-61.6929 34.0961-61.6929 75.7821V573.63328c0 41.687 27.7637 75.7924 61.6929 75.7924H740.596736zM314.2922 649.4257c33.9313 0 61.696-34.1053 61.696-75.7924v-547.971072c0-41.686-27.7658-75.7821-61.696-75.7821H283.45651200000003c-33.9343 0-61.698 34.0961-61.698 75.7821V573.63328c0 41.687 27.7637 75.7924 61.698 75.7924H314.29222400000003z"  horiz-adv-x="1024" />

    
    <glyph glyph-name="ttpodicon" unicode="&#58936;" d="M105.950408-144.603007 105.950408 750.000947l762.893488-442.153212L105.950408-144.603007zM149.643323 673.768729l0-741.247194 632.10128 374.892319L149.643323 673.768729z"  horiz-adv-x="1024" />

    
    <glyph glyph-name="sousuo" unicode="&#59051;" d="M798.386532 377.159334c0-90.322122-32.875059-173.048241-87.325366-236.740866 0 0 195.358181-195.621353 232.072842-231.577263 30.171373-29.522384-4.434167-75.370595-43.419638-33.901111-23.467419 24.980951-228.233239 225.844701-228.233239 225.844701-63.803709-54.933123-146.802359-88.132246-237.587665-88.132246-201.30588 0-364.492043 163.235758-364.492043 364.506784 0 201.271026 163.186162 364.477109 364.492043 364.477109C635.200369 741.636442 798.386532 578.43036 798.386532 377.159334zM433.893466 683.863644c-169.349788 0-306.69027-137.333832-306.69027-306.676681 0-169.398108 137.340482-306.732963 306.69027-306.732963 169.404026 0 306.744508 137.334855 306.744508 306.732963C740.637974 546.529813 603.297491 683.863644 433.893466 683.863644z"  horiz-adv-x="1024" />

    
    <glyph glyph-name="yunduo" unicode="&#58883;" d="M754.583139 34.929926l-559.871714 0.500397c-74.787304 16.703427-131.18095 87.340207-131.18095 164.334789 0 91.427292 77.166589 165.650761 170.348576 162.583912 18.061071 143.544277 137.229961 249.174036 285.804758 249.174036 126.074443 0 239.277212-77.328179 280.155877-189.672874 92.471783-16.95516 160.629839-96.642061 160.629839-190.655248C960.468502 124.792583 866.160832 34.929926 754.583139 34.929926zM201.803227 77.64068l552.778888 0c86.924213 0 163.173882 71.738881 163.173882 153.554258 0 76.849272-58.646034 141.435243-136.395932 150.237723l-13.889904 1.583055-4.128186 13.367449c-31.180394 101.522208-131.391759 172.428118-243.659189 172.428118-133.05777 0-238.42067-99.331309-245.134857-231.030817l-1.209597-24.044626-23.734513 4.088108c-7.549239 1.292436-14.391345 1.919722-21.022641 1.919722-67.446828 0-122.340245-53.828976-122.340245-119.979582C106.241956 143.977527 148.03754 90.799374 201.803227 77.64068z"  horiz-adv-x="1024" />

    
    <glyph glyph-name="guanbi" unicode="&#58890;" d="M944-135.2c-6.4 0-12.8 3.2-16 6.4L64 735.2C54.4 744.8 54.4 760.8 64 770.4s22.4 9.6 32 0l864-864c9.6-9.6 9.6-25.6 0-35.2C956.8-132 950.4-135.2 944-135.2zM80-135.2c-6.4 0-12.8 3.2-16 6.4-9.6 9.6-9.6 25.6 0 35.2l864 864c9.6 9.6 22.4 9.6 32 0s9.6-25.6 0-35.2l-864-864C92.8-132 86.4-135.2 80-135.2z"  horiz-adv-x="1024" />

    
    <glyph glyph-name="tianjia" unicode="&#59056;" d="M921.322479 274.755036l-818.644959 0c-14.129812 0-25.582655 11.452843-25.582655 25.582655s11.452843 25.582655 25.582655 25.582655l818.644959 0c14.129812 0 25.582655-11.452843 25.582655-25.582655S935.451268 274.755036 921.322479 274.755036zM513.023306-134.567443c-14.129812 0-25.582655 11.452843-25.582655 25.582655l0 818.644959c0 14.129812 11.452843 25.582655 25.582655 25.582655s25.582655-11.452843 25.582655-25.582655l0-818.644959C538.605961-123.113577 527.152095-134.567443 513.023306-134.567443z"  horiz-adv-x="1024" />

    
    <glyph glyph-name="shuaxin" unicode="&#58918;" d="M687.104 602.912 583.04 497.312 584.512 494.304 604.096 476.064 747.648 618.08 604.096 759.968 583.04 738.784 687.104 633.12 95.36 634.656 95.36-17.568 127.04-17.568 127.04 602.912ZM933.12-49.184 933.12 602.912 901.44 602.912 901.44-17.568 392.768-17.568 498.432 86.496 475.776 109.28 333.888-34.08 475.776-176.032 498.432-154.912 392.768-49.184Z"  horiz-adv-x="1024" />

    
    <glyph glyph-name="xiazaifuzhi" unicode="&#59104;" d="M608 204l0 32 256 0L864 620 160 620l0-384 256 0 0-32L160 204c0 0-32 0-32 32s0 384 0 384 0 32 32 32 672 0 704 0 32-32 32-32l0-384c0 0 0-32-32-32S608 204 608 204zM375.534933 120.778667 498.842667 1.290667 480 364l64 0-18.8448-363.252267 123.869867 120.032 20.026667-20.5248-150.656-145.9872-0.056533 0.059733L511.989333-52l-22.592 22.513067L355.505067 100.258133 375.534933 120.778667z"  horiz-adv-x="1024" />

    
    <glyph glyph-name="mima" unicode="&#58996;" d="M884.640534-147.020056l-745.281067 0.001023L139.359466 367.181075c0 7.537673 0.300852 7.830339 8.039093 7.830339l32.512485 0.001023 71.216995-0.001023 0 6.316869c0 10.614755-0.095167 21.411659-0.186242 31.852452-0.202615 23.130813-0.411369 47.049572 0.39295 70.546729 2.418073 70.673619 22.604834 129.002073 61.714574 178.321338 25.292036 31.893384 58.474786 55.148018 98.627275 69.116147C442.340989 741.833941 474.570018 747.020056 510.205633 747.020056c11.45182 0 23.436782-0.558725 35.620265-1.659803 35.256992-3.186576 66.194608-11.691273 94.582145-26.001187 40.411385-20.367887 72.253604-51.531654 94.64252-92.623537 25.159006-46.181809 37.962613-96.650247 38.051641-150.001339 0.036839-21.896706 0.026606-43.791365 0.017396-65.686025l-0.008186-36.026518 111.529119 0L884.640534-147.020056zM140.707161-145.671339l742.586702-0.001023 0 519.348362L771.764744 373.676l0.008186 37.374212c0.00921 21.893636 0.019443 43.788296-0.017396 65.682955-0.089028 53.124941-12.837376 103.376439-37.888935 149.359726-22.254863 40.847314-53.902654 71.822792-94.064352 92.065835-28.234041 14.231119-59.013045 22.690792-94.098121 25.862018-12.143575 1.098008-24.087605 1.654686-35.498492 1.654686-35.482119 0-67.566862-5.16258-98.085946-15.780405-39.906895-13.883195-72.883961-36.991496-98.014314-68.681242-38.923498-49.084928-59.015092-107.154485-61.423955-177.530322-0.803295-23.468504-0.593518-47.371914-0.390903-70.489424 0.091074-10.443863 0.186242-21.24486 0.186242-31.864732l0-7.66354L147.39856 373.665767c-3.38305 0-5.246491 0-5.974062-0.706081-0.718361-0.698918-0.718361-2.503007-0.718361-5.777587L140.707161-145.671339 140.707161-145.671339zM550.116621-35.269903l-76.016301 0-0.002047 31.228235c-0.007163 28.16548-0.01535 57.289798 0.075725 85.934185 0.011256 3.515057-0.977257 5.425569-3.777023 7.296173-28.510334 19.064194-40.569998 54.605665-29.327956 86.430488 11.010775 31.174 38.615483 50.54007 72.04178 50.54007 2.433422 0 4.915963-0.105401 7.375991-0.316202 32.370245-2.758834 60.597123-29.266557 65.659419-61.660338 4.860704-31.108508-5.92392-56.304354-32.055067-74.888618-3.016707-2.145873-4.080945-4.16281-4.066619-7.707542 0.12075-28.27088 0.109494-57.014528 0.098237-84.810594L550.116621-35.269903zM475.448014-33.923232l73.321936 0 0.00614 30.698163c0.010233 27.796066 0.022513 56.537667-0.098237 84.805478-0.017396 4.009314 1.239224 6.39771 4.631484 8.809643 25.681916 18.262946 36.282345 43.021839 31.505551 73.583902-4.969175 31.797194-32.67212 57.818847-64.440661 60.526515-2.423189 0.206708-4.865821 0.310062-7.263427 0.310062-32.838919 0-59.957557-19.021216-70.77288-49.641607-11.036357-31.243585 0.809435-66.13935 28.807093-84.860736 3.160993-2.114151 4.387937-4.473895 4.375657-8.42181-0.091074-28.641317-0.082888-57.763588-0.075725-85.928045l0.005117-23.933085L475.448014-33.923232zM698.99437 374.017784l-373.421828 0.001023-0.029676 0.642636c-0.030699 0.669242-0.067538 1.307785-0.102331 1.924839-0.072655 1.261737-0.141216 2.453888-0.141216 3.647063-0.004093 10.133801-0.030699 20.269649-0.057305 30.404474-0.062422 23.943318-0.127913 48.702212 0.12382 73.051783 0.407276 39.377846 9.713222 75.386968 27.65792 107.024525 22.23849 39.206954 56.040341 64.530712 100.464109 75.266218 20.431332 4.938476 40.667212 7.442506 60.146868 7.442506 26.989701 0 53.392024-4.806469 78.473259-14.284331 35.56296-13.440104 62.951751-37.795814 81.405031-72.389704 16.769942-31.435966 25.336038-66.723657 25.456788-104.882745 0.074701-23.227004 0.056282-46.840818 0.039909-69.677942-0.008186-10.17985-0.01535-20.360723-0.01535-30.541597L698.99437 374.017784zM326.856791 375.366502l370.789884-0.001023 0 6.2831c0 10.180873 0.008186 20.361747 0.01535 30.541597 0.017396 22.836101 0.035816 46.448892-0.039909 69.673849-0.12075 37.936007-8.632611 73.011874-25.299199 104.252389-18.294668 34.297131-45.444005 58.44204-80.691787 71.76344-24.928762 9.42158-51.17145 14.19735-77.997422 14.19735-19.37221 0-39.501666-2.491751-59.829644-7.404644-44.048215-10.645454-77.56047-35.751249-99.608625-74.621535-17.832134-31.43699-27.077705-67.227124-27.482935-106.374726-0.251733-24.340361-0.186242-49.095161-0.12382-73.033363 0.026606-10.135848 0.053212-20.272719 0.057305-30.408567 0-1.155313 0.067538-2.328022 0.13917-3.570315C326.809719 376.242452 326.834278 375.810616 326.856791 375.366502zM899.990127-162.369649l-775.980253 0.001023L124.009873 367.181075c0 5.118578 0 12.130272 5.757121 17.736966 5.587252 5.442966 12.548804 5.442966 17.631566 5.442966l32.511461 0.001023 55.846936 0c-0.032746 7.509021-0.098237 15.045671-0.162706 22.403243l-0.002047 0.282433c-0.204661 23.281239-0.415462 47.356564 0.401136 71.204715 2.534729 74.072019 23.805172 135.349641 65.028039 187.333596 27.130917 34.212196 62.663178 59.134819 105.610316 74.076112C438.944636 756.905194 472.824257 762.369649 510.205633 762.369649c11.910261 0 24.359804-0.579191 37.002752-1.722224 37.216623-3.363607 69.963445-12.386098 100.109022-27.581172 43.250036-21.798469 77.302597-55.102992 101.212146-98.986455 26.397207-48.455595 39.829124-101.385085 39.922245-157.320025 0.035816-21.375843 0.026606-42.750663 0.019443-64.125483l-0.00614-22.26305 111.525026 0L899.990127-162.369649zM156.05573-130.320723l711.88854-0.001023 0 488.649176L756.412081 358.32743l0.011256 53.960982c0.00921 21.473057 0.01842 42.947138-0.017396 64.421218-0.084934 50.537-12.202926 98.326423-36.018332 142.04104-20.73423 38.055734-50.170656 66.890456-87.493703 85.701894-26.477025 13.345959-55.44887 21.287839-88.572268 24.282033-11.685133 1.056052-23.163559 1.592264-34.117029 1.592264-33.735335 0-64.169485-4.883217-93.042069-14.927991-37.112246-12.911054-67.738777-34.349319-91.031273-63.7223-36.809347-46.419216-55.81726-101.541651-58.110489-168.518065-0.792039-23.139-0.583285-46.87561-0.382717-69.829392l0.004093-0.468674c0.090051-10.32516 0.183172-21.002336 0.183172-31.531134l0-23.013133L156.05573 358.316174 156.05573-130.320723zM565.463144-50.619496 458.75175-50.619496l-0.00307 47.596018c-0.00614 26.738991-0.013303 54.350862 0.066515 81.583087-32.148188 23.425525-45.388746 64.888869-32.218796 102.173031 13.240559 37.488823 46.390563 60.777225 86.514399 60.777225 2.885723 0 5.808286-0.124843 8.686846-0.37146 39.20593-3.342118 73.392544-35.406394 79.513962-74.584696 5.599532-35.83516-6.818289-66.206888-35.924187-88.016613 0.107447-27.355021 0.097214-55.000662 0.085958-81.766258L565.463144-50.619496zM490.797607-18.573639l42.62582 0 0.00307 16.327874c0.010233 27.461445 0.021489 55.858192-0.098237 83.761706-0.040932 9.054213 3.584642 16.049534 11.083429 21.383006 20.840654 14.818497 29.095665 34.021861 25.236777 58.70503-3.908006 25.013697-25.65224 45.477774-50.577932 47.602158-1.985214 0.169869-3.989871 0.255827-5.960759 0.255827-26.14138 0-47.713698-15.098883-56.299237-39.405475-8.698103-24.623817 0.705058-52.169173 22.865777-66.988694 7.454786-4.983501 11.220552-12.126178 11.192923-21.227464-0.090051-28.189016-0.082888-56.872289-0.076748-84.613096L490.797607-18.573639zM714.343963 358.668191l-403.432329 0.001023-0.701988 15.287171c-0.026606 0.574075-0.058328 1.128707-0.089028 1.664919l1.343601 0.086981-0.004093 0.067538c0 0.014326-0.001023 0.027629-0.002047 0.041956l-1.344624-0.076748c-0.080841 1.410116-0.164752 2.869351-0.164752 4.491291-0.004093 10.051937-0.030699 20.11206-0.056282 30.17116l-0.001023 0.407276c-0.062422 23.922852-0.12689 48.660256 0.125867 73.036433 0.433882 42.008766 10.412141 80.511685 29.65439 114.438379 24.415063 43.045375 61.495586 70.841442 110.210078 82.613556 21.61018 5.222955 43.059702 7.872295 63.752999 7.872295 28.849048 0 57.075927-5.139044 83.898829-15.274892 39.146579-14.794961 69.26555-41.550325 89.521896-79.524195 17.962094-33.668821 27.13501-71.370491 27.263947-112.058169 0.073678-23.144116 0.056282-46.661739 0.038886-69.405743l0-0.332575c-0.008186-10.175757-0.01535-20.35356-0.01535-30.529317L714.342939 358.668191zM341.984327 390.716094l340.314803-0.001023c0.002047 6.144954 0.007163 12.288884 0.011256 18.433838l0.00307 4.101411c0.017396 22.479991 0.033769 45.724391-0.040932 68.563562-0.112564 35.408441-8.016581 68.069305-23.49204 97.076966-16.491603 30.918173-40.910759 52.662407-72.575946 64.629973-23.186072 8.762571-47.603181 13.205766-72.570829 13.205766-18.156522 0-37.07336-2.346441-56.223512-6.974855-39.758516-9.608845-69.993121-32.243355-89.862657-67.274196-16.532535-29.145807-25.107841-62.441121-25.485441-98.960873-0.249687-24.191982-0.185218-48.845475-0.12382-72.688509l0-0.146333C341.955674 404.028285 341.97307 397.371678 341.984327 390.716094zM698.99437 374.017784 325.573565 374.017784l-0.029676 0.642636c-0.030699 0.670266-0.067538 1.308809-0.102331 1.926886-0.072655 1.260713-0.141216 2.451842-0.141216 3.645017-0.004093 10.134825-0.030699 20.270672-0.057305 30.405497-0.062422 23.942295-0.127913 48.701189 0.12382 73.05076 0.407276 39.377846 9.713222 75.386968 27.65792 107.024525 22.23849 39.20593 56.038294 64.529689 100.463086 75.266218 20.434401 4.939499 40.671305 7.443529 60.149938 7.443529 26.989701 0 53.391001-4.806469 78.471213-14.285355 35.563984-13.441127 62.951751-37.796838 81.405031-72.389704 16.769942-31.435966 25.336038-66.723657 25.456788-104.882745 0.073678-23.320125 0.056282-47.03013 0.039909-69.959352-0.00614-10.086729-0.014326-20.173458-0.014326-30.260188L698.99437 374.017784zM326.858838 375.365478l370.787838 0 0.00307 6.282077c0 10.086729 0.008186 20.173458 0.014326 30.261211 0.017396 22.927175 0.033769 46.636157-0.039909 69.954235-0.12075 37.936007-8.632611 73.011874-25.299199 104.252389-18.293645 34.296107-45.441958 58.44204-80.691787 71.76344-24.927739 9.42158-51.16838 14.198374-77.995375 14.198374-19.37221 0-39.502689-2.491751-59.832713-7.404644-44.048215-10.646478-77.561493-35.752272-99.608625-74.621535-17.832134-31.438013-27.077705-67.227124-27.482935-106.374726-0.251733-24.340361-0.186242-49.094138-0.12382-73.03234 0.026606-10.135848 0.053212-20.272719 0.057305-30.408567 0-1.154289 0.067538-2.326998 0.13917-3.568269C326.810742 376.242452 326.835302 375.809593 326.858838 375.365478zM714.33987 358.668191 310.912657 358.668191l-0.701988 15.288195c-0.026606 0.577145-0.058328 1.133823-0.089028 1.672082l1.344624 0.086981-0.004093 0.068562c0 0.010233-0.001023 0.019443-0.002047 0.029676l-1.344624-0.077771c-0.080841 1.411139-0.164752 2.871397-0.164752 4.496407-0.004093 10.117428-0.030699 20.24202-0.057305 30.365588l0 0.212848c-0.062422 23.922852-0.12689 48.660256 0.125867 73.036433 0.433882 42.008766 10.411117 80.511685 29.65439 114.438379 24.416086 43.045375 61.495586 70.840418 110.208031 82.613556 21.612227 5.223978 43.062771 7.873318 63.756069 7.873318 28.850072 0 57.07695-5.140067 83.896782-15.276938 39.146579-14.794961 69.26555-41.550325 89.521896-79.523171 17.962094-33.669844 27.13501-71.372537 27.263947-112.058169 0.072655-23.203468 0.056282-46.784536 0.039909-69.587891l-0.002047-3.856841c-0.007163-8.940626-0.013303-17.882276-0.013303-26.822902L714.33987 358.668191zM341.98535 390.715071l340.316849 0c0.002047 5.0142 0.005117 10.030447 0.008186 15.046694l0.004093 6.15621c0.017396 22.853497 0.033769 46.482661-0.039909 69.89693-0.112564 35.405371-8.016581 68.067258-23.49204 97.076966-16.493649 30.918173-40.910759 52.66343-72.575946 64.62895-23.187095 8.763594-47.603181 13.207813-72.568782 13.207813-18.156522 0-37.074384-2.346441-56.227606-6.974855-39.759539-9.609869-69.993121-32.244378-89.862657-67.274196-16.532535-29.14683-25.107841-62.442144-25.485441-98.960873-0.249687-24.168446-0.186242-48.799426-0.12382-72.619948l0-0.213871C341.956697 404.028285 341.974094 397.370655 341.98535 390.715071zM550.114574-35.269903l-76.014254 0-0.004093 31.237445c-0.008186 28.161387-0.01535 57.283658 0.074701 85.924975 0.010233 3.514033-0.978281 5.423523-3.777023 7.296173-28.508287 19.063171-40.569998 54.604642-29.328979 86.431511 11.010775 31.174 38.615483 50.54007 72.039733 50.54007 2.435469 0 4.916986-0.106424 7.379061-0.317225 32.370245-2.758834 60.597123-29.266557 65.659419-61.660338 4.863774-31.106462-5.92085-56.30333-32.055067-74.888618-3.013637-2.145873-4.077875-4.16281-4.066619-7.707542 0.12075-28.271904 0.109494-57.013505 0.098237-84.809571L550.114574-35.269903zM475.448014-33.923232l73.319889 0 0.00614 30.700209c0.010233 27.792996 0.022513 56.533574-0.098237 84.802408-0.013303 4.009314 1.242294 6.39771 4.631484 8.809643 25.683962 18.266016 36.283368 43.022862 31.505551 73.583902-4.969175 31.797194-32.67212 57.818847-64.440661 60.526515-2.424212 0.206708-4.868891 0.312108-7.265474 0.312108-32.836873 0-59.954487-19.022239-70.76981-49.64263-11.036357-31.243585 0.810459-66.140373 28.807093-84.860736 3.160993-2.115174 4.386914-4.474918 4.375657-8.42181-0.091074-28.639271-0.082888-57.758472-0.074701-85.919858L475.448014-33.923232zM565.461097-50.619496 458.752774-50.619496l-0.00614 46.583968c-0.007163 26.975375-0.01535 54.836933 0.064468 82.594113-32.144094 23.418362-45.388746 64.885799-32.219819 102.173031 13.240559 37.489846 46.390563 60.778248 86.512353 60.778248 2.87856 0 5.802146-0.125867 8.688893-0.372483 39.20593-3.342118 73.393567-35.406394 79.514985-74.584696 5.602601-35.834136-6.814196-66.205864-35.924187-88.016613 0.106424-27.364231 0.097214-55.002708 0.085958-81.765235L565.461097-50.619496zM490.795561-18.573639l42.62582 0 0.00307 16.375969c0.010233 27.445072 0.021489 55.824423-0.098237 83.712587-0.030699 9.060353 3.592828 16.050558 11.078313 21.379936 20.845771 14.824637 29.100782 34.026978 25.241894 58.709123-3.908006 25.013697-25.65224 45.477774-50.577932 47.602158-28.750811 2.454912-53.030797-13.023618-62.258972-39.148625-8.698103-24.623817 0.705058-52.169173 22.865777-66.98767 7.454786-4.989641 11.218506-12.129248 11.192923-21.224394-0.091074-28.697599-0.082888-57.763588-0.074701-85.87381L490.795561-18.573639z"  horiz-adv-x="1024" />

    
    <glyph glyph-name="star" unicode="&#58927;" d="M950.224228 416.89943 646.470109 459.969365 510.6784 728.694689 374.754684 459.969365 71.001589 416.89943 290.80776 207.792948 238.895437-87.451356 510.6784 51.929088 782.395872-87.451356 730.41908 207.792948Z"  horiz-adv-x="1024" />

    
    <glyph glyph-name="bianji1" unicode="&#58939;" d="M859.2638198501662-32.887432288584705l-694.5290523004945 0c-42.62242473166486 0-77.1694230662005 34.56960684133136-77.1694230662005 77.1694230662005L87.56534448347134 738.8110430781103c0 42.59416444338042 34.54699833453564 77.1694230662005 77.1694230662005 77.1694230662005l385.8499446738489 0 51.44816689185711 0 25.721257555184195 0c14.22348898186008 0 25.721257555184195-11.503420354812837 25.721257555184195-25.726909336672918s-11.497768573324116-25.721257555184195-25.721257555184195-25.721257555184195l-25.721257555184195 0-51.44816689185711 0L190.456025104856 764.5323006332945c-28.397523149642797 0-51.442513729527576-23.05064374221432-51.442513729527576-51.44816689185711l0-643.0794728084754c0-28.400348349966745 23.044991960725596-51.449579492019105 51.442513729527576-51.449579492019105l643.0865371901259 0c28.398935749804764 0 51.442513729527576 23.05064374221432 51.442513729527576 51.449579492019105l0 411.57120084819223 0 46.76823498280032 0 4.67993190905679c0 14.22348898186008 11.503420354812837 25.721257555184195 25.726909336672918 25.721257555184195s25.721257555184195-11.497768573324116 25.721257555184195-25.721257555184195l0-51.44816689185711L936.4332429163665 44.28199215845666C936.4332429163665 1.6821745527465737 901.8636360750356-32.887432288584705 859.2638198501662-32.887432288584705L859.2638198501662-32.887432288584705zM439.28089158407386 307.8672972394612c-10.033875698135969-10.056484204931685-26.31755295200395-10.056484204931685-36.37403715693563 0s-10.056484204931685 26.31755295200395 0 36.37403715693563l462.24644485103136 464.78988598588046c10.06213598642041 10.06213598642041 26.31755295200395 10.06213598642041 36.37403715693563 0 10.056484204931685-10.056484204931685 10.056484204931685-26.34016145879967 0-36.36838537544691L439.28089158407386 307.8672972394612 439.28089158407386 307.8672972394612zM439.28089158407386 307.8672972394612"  horiz-adv-x="1024" />

    
    <glyph glyph-name="zanting1" unicode="&#58943;" d="M181.18813 668.661408l696.841845 0 0-696.840822-696.841845 0 0 696.840822Z"  horiz-adv-x="1024" />

    
    <glyph glyph-name="bianji2" unicode="&#58907;" d="M933.04394 735.491489c13.58132-13.582343 16.118096-33.050744 5.682419-43.509956L510.308987 263.586672c-10.4367-10.459213-29.904077-7.92346-43.487444 5.659907-13.58132 13.583366-16.117073 33.050744-5.681396 43.509956l428.417373 428.39486C899.993197 751.610608 919.461597 749.052343 933.04394 735.491489zM833.658396 386.128613l0-464.167598c0-9.679453-7.67889-17.553795-17.117866-17.553795L133.372102-95.59278c-9.437953 0-17.116843 7.874341-17.116843 17.553795L116.255259 612.140113c0 9.66922 7.67889 17.535375 17.116843 17.535375l460.83162 0 0 51.16531L133.372102 680.840798c-37.650505 0-68.282153-30.818913-68.282153-68.700685l0-690.178075c0-37.892005 30.631648-68.719104 68.282153-68.719104L816.54053-146.757067c37.651528 0 68.283176 30.827099 68.283176 68.719104L884.823706 386.128613 833.658396 386.128613z"  horiz-adv-x="1024" />

    
    <glyph glyph-name="weixuanzhong" unicode="&#58947;" d="M512 752.1339164444444c202.98926459259258 0 368.1339164444444-165.14465185185182 368.1339164444444-368.1339164444444S714.9892645925926 15.866083555555633 512 15.866083555555633 143.86608355555563 181.01073540740742 143.86608355555563 384 309.0107354074074 752.1339164444444 512 752.1339164444444M512 808.7703703703703c-234.59460740740738 0-424.7703703703703-190.1757629629629-424.7703703703703-424.7703703703703s190.1757629629629-424.7703703703703 424.7703703703703-424.7703703703703 424.7703703703703 190.1757629629629 424.7703703703703 424.7703703703703S746.5946074074074 808.7703703703703 512 808.7703703703703L512 808.7703703703703z"  horiz-adv-x="1024" />

    
    <glyph glyph-name="shangjiantou" unicode="&#58921;" d="M754.884796 505.722272L532.958334 727.849302c-11.57564 11.585873-30.342052 11.585873-41.917692 0L269.115204 505.722272c-11.57564-11.587919-11.57564-30.376844 0-41.962717 11.57564-11.587919 30.342052-11.587919 41.917692 0l171.062004 171.2155 0-573.300135c0-16.686031 13.527085-30.213116 30.213116-30.213116 16.686031 0 30.213116 13.527085 30.213116 30.213116L542.521131 634.356978l170.445974-170.597423c11.57564-11.587919 30.342052-11.587919 41.915645 0C766.460436 475.345428 766.460436 494.134353 754.884796 505.722272z"  horiz-adv-x="1024" />

    
    <glyph glyph-name="78" unicode="&#59012;" d="M907.605333 406.755556l-46.580622 0C849.760711 576.853333 713.386667 713.227378 543.288889 724.491378L543.288889 771.072c0 12.447289-10.080711 22.528-22.528 22.528l-0.455111 0c-12.447289 0-22.528-10.080711-22.528-22.528l0-46.580622C327.68 713.227378 191.305956 576.853333 180.041956 406.755556L133.461333 406.755556c-12.447289 0-22.528-10.080711-22.528-22.528l0-0.455111c0-12.447289 10.080711-22.528 22.528-22.528l46.580622 0C191.305956 191.146667 327.68 54.772622 497.777778 43.508622l0-46.580622c0-12.447289 10.080711-22.528 22.528-22.528l0.455111 0c12.447289 0 22.528 10.080711 22.528 22.528l0 46.580622C713.386667 54.772622 849.760711 191.146667 861.024711 361.244444l46.580622 0c12.447289 0 22.528 10.080711 22.528 22.528l0 0.455111C930.133333 396.674844 920.052622 406.755556 907.605333 406.755556zM792.576 406.755556l-39.958756 0c-10.752 110.478222-98.861511 198.587733-209.339733 209.339733L543.277511 656.042667C675.726222 645.051733 781.585067 539.192889 792.576 406.755556zM645.461333 361.244444l72.783644 0c-10.490311-91.613867-83.342222-164.465778-174.956089-174.956089L543.288889 259.072c0 12.447289-10.080711 22.528-22.528 22.528l-0.455111 0c-12.447289 0-22.528-10.080711-22.528-22.528l0-72.783644C406.163911 196.778667 333.312 269.630578 322.821689 361.244444l72.783644 0c12.447289 0 22.528 10.080711 22.528 22.528l0 0.455111c0 12.447289-10.080711 22.528-22.528 22.528l-72.783644 0c10.490311 91.613867 83.342222 164.465778 174.956089 174.956089l0-72.783644c0-12.447289 10.080711-22.528 22.528-22.528l0.455111 0c12.447289 0 22.528 10.080711 22.528 22.528l0 72.783644C634.902756 571.221333 707.754667 498.369422 718.244978 406.755556L645.461333 406.755556c-12.447289 0-22.528-10.080711-22.528-22.528l0-0.455111C622.933333 371.325156 633.014044 361.244444 645.461333 361.244444zM497.777778 656.042667l0-39.958756C387.299556 605.343289 299.190044 517.233778 288.438044 406.755556L248.490667 406.755556C259.4816 539.192889 365.340444 645.051733 497.777778 656.042667zM248.490667 361.244444l39.958756 0c10.752-110.478222 98.861511-198.587733 209.339733-209.339733l0-39.958756C365.340444 122.948267 259.4816 228.807111 248.490667 361.244444zM543.288889 111.957333l0 39.958756C653.767111 162.656711 741.876622 250.766222 752.628622 361.244444l39.958756 0C781.585067 228.807111 675.726222 122.948267 543.288889 111.957333z"  horiz-adv-x="1024" />

    
    <glyph glyph-name="radio-active" unicode="&#58926;" d="M510.890224 825.841104c-243.73414 0-442.004833-198.279902-442.004833-442.004833 0-243.723907 198.271716-442.004833 442.004833-442.004833 243.726977 0 442.004833 198.281949 442.004833 442.004833C952.893011 627.561202 754.617202 825.841104 510.890224 825.841104L510.890224 825.841104zM510.890224-22.807192999999984c-224.229924 0-406.64858 182.419679-406.64858 406.644487 0 224.229924 182.423773 406.644487 406.64858 406.644487 224.222761 0 406.647557-182.414563 406.647557-406.644487C917.537781 159.612487 735.111962-22.807192999999984 510.890224-22.807192999999984L510.890224-22.807192999999984zM510.890224 551.497828c-92.602048 0-167.652348-75.063603-167.652348-167.659511 0-92.591815 75.051323-167.652348 167.652348-167.652348 92.598978 0 167.651324 75.060533 167.651324 167.652348C678.540526 476.434226 603.489202 551.497828 510.890224 551.497828L510.890224 551.497828z"  horiz-adv-x="1024" />

    
    <glyph glyph-name="huifu" unicode="&#59072;" d="M990.007709 4c-11.2 0-22 5.9-27.8 16.2C841.707709 231.7 672.307709 256.8 448.007709 258.6l0-198.6c0-12.6-7.3-24-18.8-29.1-11.4-5.2-24.8-3.2-34.3 5.1l-384 336c-6.8 6-10.8 14.5-10.9 23.5-0.2 9 3.5 17.7 10.1 23.9l384 360c9.3 8.7 22.9 11.1 34.6 6 11.7-5.1 19.3-16.6 19.3-29.4l0-168.8c100.4-5 191.9-33.7 272.4-85.6 70.8-45.6 133-108.9 184.8-188.2 87.3-133.6 114.9-265.6 116.1-271.1 3.1-15.4-5.4-30.8-20.1-36.3C997.607709 4.7 993.807709 4 990.007709 4zM79.707709 396.9 384.007709 130.6 384.007709 290.8c0 17.7 14.3 32 32 32 136.7 0 247.4-7.2 343.5-42.1 50.9-18.5 95.2-43.8 135.2-77.1-12.5 24.9-27 50.8-44 76.6C744.207709 442 598.007709 524 416.007709 524c-17.7 0-32 14.3-32 32l0 126.2L79.707709 396.9z"  horiz-adv-x="1025" />

    
    <glyph glyph-name="dunpai" unicode="&#58893;" d="M899.0318 641.164011c-1.879813 0.821715-3.957125 1.476631-6.248308 1.926886-141.138484 27.78788-256.594029 95.311763-370.208647 181.836395-7.104815 5.412266-21.344121 5.617951-28.438703 0.156566-51.966559-39.981596-105.515149-78.9317-162.547073-111.212918-62.47489-35.365462-138.850371-51.951209-207.747531-70.183456-18.361183-4.858658-23.041786-22.174022-18.306948-36.265972 5.760191-130.954541 27.164686-268.446985 81.788771-387.709229 57.676607-125.932154 193.631022-220.186841 314.801732-277.630135 4.200672-1.991354 8.332782-2.90926 12.276604-2.976798 5.075599-0.604774 10.561543 0.218988 16.165168 2.976798 121.397884 59.734476 246.036579 153.744593 307.506583 277.630135 58.546418 117.989251 76.861552 263.703961 82.08553 394.510122C920.79036 629.977227 910.782426 638.94139 899.0318 641.164011zM789.42138 248.450814C738.483244 137.233803 623.422695 53.213201 516.089132-1.737318c-107.355053 53.072753-216.850863 131.974777-274.347368 238.565421-56.264445 104.309694-73.476455 239.132332-79.307254 358.261547 60.946071 16.284895 121.882931 33.675984 179.62503 59.245336 59.611679 26.397207 114.640993 68.258617 166.701696 108.521622 108.830661-78.879512 220.791615-142.970202 353.947288-172.153872C856.456123 475.136673 837.355089 353.103316 789.42138 248.450814zM695.105295 527.936203c-73.668837-74.447573-147.337673-148.895145-221.00651-223.344764-39.052434 39.46585-78.104869 78.9317-117.154233 118.39755-25.714661 25.987884-65.558112-14.279215-39.84345-40.267099 44.951795-45.424562 89.899496-90.855264 134.851291-136.279826 0.662079-0.669242 1.336438-1.284249 2.015913-1.867534 9.930163-10.293437 26.511817-14.066367 39.494503-0.945535 80.495312 81.34875 160.986531 162.697499 241.481843 244.043179C760.660336 513.660058 720.819956 553.925111 695.105295 527.936203z"  horiz-adv-x="1024" />

    
    <glyph glyph-name="shanchu" unicode="&#59074;" d="M711.446 684l0 99.374c0 27.328-22.359 49.688-49.688 49.688l-298.123 0c-27.328 0-49.688-22.359-49.688-49.688L313.947 684l-248.435 0 0-49.688 99.374 0 0-645.933c0-27.328 22.359-49.688 49.688-49.688l596.246 0c27.328 0 49.688 22.359 49.688 49.688L860.508 634.312l99.374 0L959.882 684 711.446 684zM661.759 783.374L661.759 684 363.636 684l0 99.374L661.759 783.374zM810.821-11.620999999999981L214.574-11.620999999999981 214.574 634.312l596.247 0L810.821-11.620999999999981zM661.759 534.938l49.688 0L711.447 137.44000000000005l-49.688 0L661.759 534.938zM537.542 137.44000000000005L537.542 534.938l-24.844 0-24.844 0L487.854 137.44000000000005l24.844 0L537.542 137.44000000000005zM313.949 534.938l49.688 0L363.637 137.44000000000005l-49.688 0L313.949 534.938z"  horiz-adv-x="1024" />

    
    <glyph glyph-name="quxiaoshouquan" unicode="&#59013;" d="M563.9338666666666 281.14453333333336l0 102.8576 102.79893333333332 0L666.7328 486.8586666666667l-102.79893333333332 0 0 102.85653333333333-102.79893333333332 0 0-102.85653333333333L358.336 486.8586666666667l0-102.85653333333333 102.79893333333332 0 0-102.8576L563.9338666666666 281.14453333333336zM512.5354666666666-27.430399999999963c-274.1322666666667 190.9152-342.6666666666667 332.4448-342.6666666666667 470.6922666666667 0 82.29866666666666 0 207.35573333333332 0 207.35573333333332 182.7776 0 342.6666666666667 144.81066666666666 342.6666666666667 144.81066666666666s159.88693333333333-144.81066666666666 342.66560000000004-144.81066666666666c0 0 0-125.05493333333334 0-207.35573333333332 0-21.746133333333333-1.7002666666666668-43.57333333333334-5.623466666666667-65.6608 22.90986666666667-5.4784 44.6944-13.8528 64.9472-24.723200000000002 6.1824 29.475199999999997 9.2096 59.519999999999996 9.2096 90.384L923.7344 650.6186666666666c0 37.867733333333334-30.685866666666666 68.57173333333333-68.53333333333333 68.57173333333333l0.0010666666666666667-0.0010666666666666667c-152.12586666666667 0-295.2821333333333 125.79306666666666-296.6890666666667 127.06346666666667C545.4624 858.1066666666667 528.9984000000001 864 512.5333333333333 864c-16.430933333333332 0-32.86293333333333-5.8944-45.913599999999995-17.6448-2.1408-1.9082666666666666-143.8250666666667-127.1648-296.7541333333333-127.1648-37.8464 0-68.53333333333333-30.70293333333333-68.53333333333333-68.57173333333333L101.33226666666673 443.264c0-187.76746666666668 111.26506666666667-345.36853333333335 372.0469333333333-526.9749333333333C485.1573333333333-91.91466666666656 498.84586666666667-96 512.5333333333333-96s27.372799999999998 4.085333333333334 39.15306666666667 12.289066666666667c9.522133333333333 6.631466666666666 18.82133333333333 13.226666666666667 27.946666666666665 19.79733333333333-14.877866666666668 17.341866666666665-27.60533333333333 36.57706666666666-37.78026666666666 57.29493333333333C532.3413333333334-13.494399999999928 522.5941333333334-20.42453333333333 512.5354666666666-27.430399999999963zM688 81.0666666666666l198.4 0 0 58.666666666666664L688 139.73333333333335 688 81.0666666666666zM786.1333333333333 329.6c-119.54453333333332 0-216.53333333333333-96.98986666666666-216.53333333333333-216.53333333333333 0-119.54453333333332 96.98880000000001-216.53333333333333 216.53333333333333-216.53333333333333 117.28960000000001 0 214.2784 96.98880000000001 216.53333333333333 216.53333333333333C1002.6666666666667 232.61013333333335 905.6778666666667 329.6 786.1333333333333 329.6zM786.6666666666667-49.066666666666606C698.2090666666667-49.066666666666606 628.2666666666667 20.874666666666712 628.2666666666667 109.33333333333326c0 88.45653333333333 72 158.4 158.4 158.4S945.0666666666666 197.78986666666663 945.0666666666666 109.33333333333326C945.0666666666666 20.874666666666712 875.1232-49.066666666666606 786.6666666666667-49.066666666666606z"  horiz-adv-x="1024" />

    
    <glyph glyph-name="shouquanrenzheng" unicode="&#58967;" d="M512 830.51c-190.358 0-344.675-154.317-344.675-344.675s154.316-344.675 344.675-344.675 344.674 154.317 344.674 344.675-154.316 344.675-344.674 344.675zM512 172.495c-173.053 0-313.34 140.287-313.34 313.34s140.287 313.341 313.34 313.341 313.34-140.288 313.34-313.341-140.287-313.34-313.34-313.34zM512 783.509c-164.4 0-297.674-133.273-297.674-297.674s133.273-297.674 297.674-297.674 297.674 133.273 297.674 297.674-133.273 297.674-297.674 297.674zM512 203.83c-155.748 0-282.007 126.259-282.007 282.007s126.259 282.007 282.007 282.007 282.007-126.26 282.007-282.008-126.26-282.006-282.007-282.006zM653.003-15.509l-141.003 78.335-141.003-78.335 0 175.074c-18.663 7.332-31.334 12.929-31.334 12.929v-235.005l172.337 94.002 172.337-94.002 0 235.005c0 0-12.373-4.713-31.334-11.154l0-176.85zM355.33 517.17v-47.001l125.336-109.669 203.672 188.004v47.001l-203.672-188.005z"  horiz-adv-x="1024" />

    
    <glyph glyph-name="10shouquanrenzheng" unicode="&#59029;" d="M512 830.51045c-190.358489 0-344.67511-154.316621-344.67511-344.67511s154.315598-344.67511 344.67511-344.67511S856.674087 295.476851 856.674087 485.83534 702.358489 830.51045 512 830.51045zM512 172.494888c-173.053358 0-313.340451 140.287093-313.340451 313.340451S338.946642 799.176814 512 799.176814 825.340451 658.888697 825.340451 485.83534 685.053358 172.494888 512 172.494888zM512 783.508973c-164.400281 0-297.673633-133.273353-297.673633-297.673633s133.273353-297.673633 297.673633-297.673633S809.673633 321.435059 809.673633 485.83534 676.400281 783.508973 512 783.508973zM512 203.829548c-155.748227 0-282.006815 126.258589-282.006815 282.006815s126.258589 282.006815 282.006815 282.006815S794.006815 641.583566 794.006815 485.83534 667.747203 203.829548 512 203.829548zM653.003408-15.508973l-141.003408 78.335113-141.003408-78.335113L370.996592 159.565415c-18.663058 7.331989-31.333636 12.929474-31.333636 12.929474l0-235.005338 172.337043 94.001931 172.337043-94.001931L684.337043 172.494888c0 0-12.372795-4.713348-31.333636-11.154038L653.003408-15.508973zM355.329774 517.169999 355.329774 470.168522 480.665341 360.499773 684.337043 548.503635 684.337043 595.505112 480.665341 407.500227Z"  horiz-adv-x="1024" />

    
    <glyph glyph-name="10shouquanrenzheng1" unicode="&#59053;" d="M512 830.51c-190.358 0-344.675-154.317-344.675-344.675s154.316-344.675 344.675-344.675 344.674 154.317 344.674 344.675-154.316 344.675-344.674 344.675zM512 172.495c-173.053 0-313.34 140.287-313.34 313.34s140.287 313.341 313.34 313.341 313.34-140.288 313.34-313.341-140.287-313.34-313.34-313.34zM512 783.509c-164.4 0-297.674-133.273-297.674-297.674s133.273-297.674 297.674-297.674 297.674 133.273 297.674 297.674-133.273 297.674-297.674 297.674zM512 203.83c-155.748 0-282.007 126.259-282.007 282.007s126.259 282.007 282.007 282.007 282.007-126.26 282.007-282.008-126.26-282.006-282.007-282.006zM653.003-15.509l-141.003 78.335-141.003-78.335 0 175.074c-18.663 7.332-31.334 12.929-31.334 12.929v-235.005l172.337 94.002 172.337-94.002 0 235.005c0 0-12.373-4.713-31.334-11.154l0-176.85zM355.33 517.17v-47.001l125.336-109.669 203.672 188.004v47.001l-203.672-188.005z"  horiz-adv-x="1024" />

    
    <glyph glyph-name="bianji" unicode="&#59004;" d="M703.698508 831.982988 703.698508 768.03863 127.91788 768.03863 127.91788 0.494513 767.527233 0.494513 767.527233 320.214255 831.526849 320.214255 831.526849-63.482591 64.027757-63.482591 64.027757 831.982988ZM191.533756 640.509095l383.739824 0 0-64.46829-383.739824 0 0 64.46829ZM191.533756 512.680754l383.739824 0 0-64.46829-383.739824 0 0 64.46829ZM191.533756 384.249687l191.869912 0 0-64.46829-191.869912 0 0 64.46829ZM191.533756 256.855228l191.869912 0 0-64.46829-191.869912 0 0 64.46829ZM458.388477 202.272076 855.373976 781.6046 960.726419 709.344856 563.74092 130.013355 438.929286 60.32211Z"  horiz-adv-x="1024" />

    
    <glyph glyph-name="luxiangxian" unicode="&#59183;" d="M960 448l-192-128c0 38.4-17.6 73.6-44.8 96 65.6 38.4 108.8 110.4 108.8 192 0 123.2-100.8 224-224 224-123.2 0-224-100.8-224-224 0-62.4 25.6-120 67.2-160l-116.8 0c30.4 33.6 49.6 78.4 49.6 128 0 105.6-86.4 192-192 192S0 681.6 0 576c0-57.6 25.6-108.8 67.2-144C27.2 409.6 0 368 0 320l0-256c0-70.4 57.6-128 128-128l512 0c70.4 0 128 57.6 128 128l0 32 192-160c35.2 0 64 28.8 64 64L1024 384C1024 419.2 995.2 448 960 448zM64 576c0 70.4 57.6 128 128 128 70.4 0 128-57.6 128-128 0-70.4-57.6-128-128-128C121.6 448 64 505.6 64 576zM704 64c0-35.2-28.8-64-64-64L128 0c-35.2 0-64 28.8-64 64L64 320c0 35.2 28.8 64 64 64l512 0c35.2 0 64-28.8 64-64L704 64zM608 448c-88 0-160 72-160 160 0 88 72 160 160 160 88 0 160-72 160-160C768 520 696 448 608 448zM960 0 768 160c0 22.4 0 76.8 0 96l192 128C960 339.2 960 25.6 960 0z"  horiz-adv-x="1024" />

    
    <glyph glyph-name="yulan" unicode="&#59009;" d="M633.011306-81.86444 633.011306-81.399011 139.657519-81.399011c-24.667689 0-47.939094 9.77399-65.625362 27.460258C56.345889-36.252486 46.571899-12.981081 46.571899 11.686609L46.571899 756.37157c0 24.667689 9.77399 47.939094 27.460258 65.625362C91.718425 839.6832 114.98983 849.45719 139.657519 849.45719l605.056531 0c24.667689 0 47.939094-9.77399 65.625362-27.460258C828.02568 804.310664 837.79967 781.039259 837.79967 756.37157l0-209.209931c0 0 0 0 0-0.232714 0-12.799273 10.472132-23.271405 23.271405-23.271405 12.799273 0 23.271405 10.472132 23.271405 23.271405l0 0L884.342481 756.37157c0 76.795637-62.832794 139.62843-139.62843 139.62843L139.657519 896C62.861883 896 0.029089 833.167206 0.029089 756.37157l0-744.684961c0-76.795637 62.832794-139.62843 139.62843-139.62843l493.353787 0 0 0.465428c10.704846 2.094426 18.617124 11.635703 18.617124 22.805977S643.716152-83.958866 633.011306-81.86444zM721.442645 703.778194 721.442645 703.778194c0 12.799273-10.472132 23.271405-23.271405 23.271405L186.20033 727.049599c-12.799273 0-23.271405-10.472132-23.271405-23.271405l0 0c0-12.799273 10.472132-23.271405 23.271405-23.271405l511.970911 0C710.970513 680.506789 721.442645 690.978922 721.442645 703.778194zM186.20033 38.681439l139.62843 0c12.799273 0 23.271405 10.472132 23.271405 23.271405s-10.472132 23.271405-23.271405 23.271405L186.20033 85.224249c-12.799273 0-23.271405-10.472132-23.271405-23.271405S173.401057 38.681439 186.20033 38.681439zM186.20033 359.594114l93.08562 0c12.799273 0 23.271405 10.472132 23.271405 23.271405s-10.472132 23.271405-23.271405 23.271405L186.20033 406.136924c-12.799273 0-23.271405-10.472132-23.271405-23.271405S173.401057 359.594114 186.20033 359.594114zM1017.222203-88.147719l-172.208397 172.208397c39.09596 46.54281 62.60008 106.583035 62.60008 171.975683 0 147.773422-119.847736 267.621158-267.621158 267.621158s-267.621158-119.847736-267.621158-267.621158 119.847736-267.621158 267.621158-267.621158c65.625362 0 125.432873 23.504119 171.975683 62.60008l172.208397-172.208397c9.075848-9.075848 23.969547-9.075848 32.812681 0S1026.298051-97.223567 1017.222203-88.147719zM639.992728 34.958014c-121.942162 0-221.078348 99.136185-221.078348 221.078348s99.136185 221.078348 221.078348 221.078348 221.078348-99.136185 221.078348-221.078348S761.93489 34.958014 639.992728 34.958014z"  horiz-adv-x="1024" />

    
    <glyph glyph-name="yonghuming" unicode="&#58915;" d="M857.5 157.5c-14.1 37.7-34.6 72.7-60.8 103.9-43 51.2-100 89.8-163.5 111.5 10.4 7 20.3 15 29.5 24 40.2 39.1 62.3 91.1 62.3 146.3s-22.1 107.2-62.3 146.3c-40.2 39.1-93.6 60.6-150.5 60.6-56.8 0-110.3-21.5-150.5-60.6s-62.3-91.1-62.3-146.3c0-55.3 22.1-107.2 62.3-146.3 9.1-8.9 19-16.9 29.4-23.9-63.5-21.6-120.5-60.1-163.6-111.2-26.3-31.2-46.8-66.3-61-104-14.6-39.1-22.1-80.2-22.1-122.2 0-10.4 8.7-18.8 19.3-18.8s19.3 8.4 19.3 18.8c0 149.5 108.6 280.6 258.5 312.4 22.4-7.6 46.1-11.6 70.5-11.6 24.3 0 48.1 4 70.4 11.6 149.7-31.9 258.2-163.1 258.2-312.4 0-10.4 8.7-18.8 19.3-18.8s19.3 8.4 19.3 18.8C879.5 77.3 872.1 118.4 857.5 157.5zM338.1 543.2c0 93.4 78.1 169.3 174.1 169.3s174.1-76 174.1-169.3-78.1-169.3-174.1-169.3C416.2 373.9 338.1 449.8 338.1 543.2z"  horiz-adv-x="1024" />

    
    <glyph glyph-name="zhuxiao" unicode="&#59036;" d="M513.106706-60.60403c-221.587748 0-401.847228 180.275853-401.847228 401.842111 0 148.784628 81.725326 284.675598 213.232452 354.773096 10.94733 5.777587 24.415063 1.674129 30.213116-9.201569 5.849218-10.880815 1.663896-24.420179-9.201569-30.217209-116.939339-62.291718-189.594079-183.131901-189.594079-315.355341 0-196.934255 160.243611-357.194238 357.198332-357.194238 196.97007 0 357.194238 160.259984 357.194238 357.194238 0 131.822304-72.28942 252.515131-188.66594 314.937832-10.861372 5.782703-14.994506 19.322068-9.151427 30.197766 5.798053 10.880815 19.401886 14.934131 30.217209 9.135054 130.889049-70.179362 212.249055-205.91786 212.249055-354.270652C914.94984 119.671823 734.709803-60.60403 513.106706-60.60403L513.106706-60.60403 513.106706-60.60403zM513.106706 318.883957c-12.326746 0-22.278399 10.013051-22.278399 22.355147L490.828306 810.024883c0 12.342096 9.952676 22.360264 22.278399 22.360264 12.342096 0 22.375613-10.018168 22.375613-22.360264l0-468.785779C535.482319 328.897008 525.448802 318.883957 513.106706 318.883957L513.106706 318.883957 513.106706 318.883957zM513.106706 318.883957"  horiz-adv-x="1024" />

    
    <glyph glyph-name="guan" unicode="&#59375;" d="M1510.570667 895.998016 511.630884 895.998016C229.064434 895.998016 0 666.756961 0 383.994047 0 101.223194 229.064434-127.998016 511.630884-127.998016L1510.570667-127.998016C1793.137116-127.998016 2022.20155 101.223194 2022.20155 383.994047 2022.20155 666.756961 1793.129178 895.998016 1510.570667 895.998016L1510.570667 895.998016ZM511.630884-83.771535C253.886512-83.771535 44.204651 126.073054 44.204651 383.994047 44.204651 641.92893 253.886512 851.759628 511.630884 851.759628 769.375256 851.759628 979.055132 641.92893 979.055132 383.994047 979.055132 126.073054 769.375256-83.771535 511.630884-83.771535L511.630884-83.771535Z"  horiz-adv-x="2023" />

    
    <glyph glyph-name="folderwenjianjia" unicode="&#59084;" d="M1005.6704 713.1136C1017.856 713.1136 1024 707.072 1024 694.8864L1024 128c0-21.4016-6.8608-38.8096-20.5824-52.5312C989.696 61.7472 972.1856 54.8864 950.8864 54.8864L73.1136 54.8864c-21.2992 0-38.8096 6.8608-52.5312 20.5824C6.8608 89.1904 0 106.5984 0 128L0 822.8864c0 21.2992 6.8608 38.912 20.5824 52.5312C34.304 889.1392 51.8144 896 73.1136 896l219.4432 0c36.5568 0 65.536-14.5408 86.8352-43.4176 15.2576-19.7632 35.0208-29.696 59.392-29.696l438.8864 0c21.2992 0 38.8096-6.8608 52.5312-20.5824C944.0256 788.5824 950.8864 771.072 950.8864 749.6704l0-36.5568L1005.6704 713.1136zM73.1136 694.8864c0 12.1856 6.144 18.3296 18.3296 18.3296l822.8864 0L914.3296 749.6704c0 24.3712-12.1856 36.5568-36.5568 36.5568L438.8864 786.2272c-36.5568 0-65.536 14.4384-86.8352 43.4176-15.2576 19.7632-35.0208 29.696-59.392 29.696L73.1136 859.3408c-24.3712 0-36.5568-12.1856-36.5568-36.5568L36.5568 128c0-24.3712 12.1856-36.5568 36.5568-36.5568L73.1136 694.8864zM950.8864 91.4432c24.3712 0 36.5568 12.1856 36.5568 36.5568L987.4432 676.5568 109.6704 676.5568l0-585.1136L950.8864 91.4432z"  horiz-adv-x="1024" />

    
    <glyph glyph-name="zhunque-copy" unicode="&#58882;" d="M512 570.182c-102.865 0-186.182-83.316-186.182-186.182s83.316-186.182 186.182-186.182c102.865 0 186.182 83.316 186.182 186.182 0 102.865-83.316 186.182-186.182 186.182v0zM928.116 430.545c-21.411 194.095-175.476 348.16-369.571 369.571v95.884h-93.091v-95.884c-194.095-21.411-348.16-175.476-369.571-369.571h-95.884v-93.091h95.884c21.411-194.095 175.476-348.16 369.571-369.571v-95.884h93.091v95.884c194.095 21.411 348.16 175.476 369.571 369.571h95.884v93.091h-95.884zM512 58.182c-180.131 0-325.818 145.687-325.818 325.818s145.687 325.818 325.818 325.818c180.131 0 325.818-145.687 325.818-325.818 0-180.131-145.687-325.818-325.818-325.818v0z"  horiz-adv-x="1024" />

    
    <glyph glyph-name="tuisong" unicode="&#58894;" d="M437.51303-14.130579l40.420595 0c0 0 0.511653 179.122587 0 192.681394s5.348821 28.418236 11.256368 35.304064c5.90857 6.885827 448.719768 522.910491 448.719768 522.910491S815.694255 112.21192 814.067198 103.931327c-1.257643-6.393617-5.434779-9.121751-11.234879-7.245008-6.997368 2.2656-262.47804 81.864496-262.47804 81.864496l-12.982686-39.397289c0 0 242.571664-76.187193 266.762623-83.399455 26.605961-7.930623 54.235229 9.209756 59.863413 39.397289 4.644787 24.90625 131.175575 668.910703 133.031852 680.496575 1.853208 11.583826 6.979972 27.970028-12.515035 37.379329-14.432711 6.966669-31.828916-8.045233-31.828916-8.045233l-5.458315 10.576893c0 0-820.094984-437.890118-849.344145-453.665407s-27.951609-49.001017-3.41068-56.965409c24.540929-7.963369 272.199449-88.344071 272.199449-88.344071l12.621459 38.885636-244.910942 78.794577 765.433036 409.66324c0 0-409.322479-476.860688-426.207032-496.303506s-26.383904-39.653115-26.350135-65.23577C437.290973 156.803511 437.51303-14.130579 437.51303-14.130579z"  horiz-adv-x="1024" />

    
    <glyph glyph-name="xiajiantou" unicode="&#58887;" d="M269.115 262.278l221.926-222.127c11.576-11.586 30.342-11.587 41.919 0l221.925 222.127c11.576 11.587 11.576 30.377 0 41.963-11.576 11.587-30.342 11.588-41.919 0l-171.062-171.216v573.3c0 16.686-13.527 30.213-30.213 30.213s-30.213-13.527-30.213-30.213v-572.682l-170.446 170.597c-11.576 11.587-30.342 11.588-41.916 0-11.577-11.586-11.578-30.374-0.002-41.963z"  horiz-adv-x="1024" />

    
    <glyph glyph-name="icon" unicode="&#59078;" d="M208.270952 289.888576c-5.865591 0-11.561313 3.02694-14.7264 8.462742-4.705162 8.123005-1.953492 18.525935 6.15621 23.231097l628.841102 365.361245c8.123005 4.746094 18.512632 1.954515 23.231097-6.15007 4.711302-8.124028 1.957585-18.525935-6.149047-23.236214l-628.843148-365.361245C214.114031 290.636612 211.171002 289.888576 208.270952 289.888576L208.270952 289.888576 208.270952 289.888576zM208.270952 289.888576M754.81777 26.407696c-0.733711 0-1.482771 0.051165-2.228761 0.12996-9.29776 1.227967-15.862269 9.759271-14.649652 19.071358l82.307587 628.842125c1.208525 9.315156 9.777691 15.857153 19.070334 14.649652 9.295714-1.224898 15.860223-9.756201 14.651698-19.070334l-82.309634-628.842125C770.51631 32.641677 763.21195 26.407696 754.81777 26.407696L754.81777 26.407696 754.81777 26.407696zM754.81777 26.407696M396.257417 258.086266c-0.936325 0-1.889023 0.071631-2.854001 0.237407l-187.994652 31.80231c-9.246595 1.560542-15.483646 10.330276-13.919011 19.594267 1.566682 9.246595 10.283204 15.549138 19.597337 13.921058l187.989535-31.795147c9.242502-1.567705 15.483646-10.337439 13.919011-19.597337C411.585521 263.95288 404.395772 258.086266 396.257417 258.086266L396.257417 258.086266 396.257417 258.086266zM396.257417 258.086266M754.781954 26.407696c-3.702322 0-7.426133 1.203408-10.553357 3.665483L527.751241 201.730747c-7.360641 5.828752-8.583492 16.517185-2.765997 23.877827 5.856381 7.360641 16.553001 8.567119 23.877827 2.774183l216.473263-171.660638c7.360641-5.829775 8.579399-16.521279 2.77316-23.874757C764.757143 28.613944 759.792061 26.407696 754.781954 26.407696L754.781954 26.407696 754.781954 26.407696zM754.781954 26.407696M472.775138 38.370145l-0.023536 0c-9.378601 0-16.978696 9.80532-16.978696 19.185968l0.275269 204.454532c0 9.388834 7.611352 14.31503 16.997116 14.31503l0.01228 0c9.385764 0 16.980743-3.889587 16.980743-13.275351l-0.271176-207.41598C489.749742 46.240393 482.154763 38.370145 472.775138 38.370145L472.775138 38.370145 472.775138 38.370145zM472.775138 38.370145M473.026872 249.811812c-4.049223 0-8.111748 1.426489-11.339256 4.352121-6.987135 6.27389-7.562233 17.011442-1.292436 23.99346l364.068809 405.436986c6.285147 6.985088 17.030885 7.54586 23.995507 1.293459 6.987135-6.27696 7.565303-17.015535 1.295506-23.997554L485.689263 255.453299C482.320539 251.719254 477.681892 249.811812 473.026872 249.811812L473.026872 249.811812 473.026872 249.811812zM473.026872 249.811812"  horiz-adv-x="1024" />

    
    <glyph glyph-name="yonghu" unicode="&#59003;" d="M799.093266 268.432572c24.849364 0 31.119568 6.333326 31.119568 31.119568 0 14.349929-10.183821 26.09078-20.599092 34.317792l-1.977849 1.977849c-34.633407 26.785132-70.781762 52.307806-112.337642 68.172684 52.854871 45.364292 86.499353 112.569092 86.499353 187.68529 0 136.555777-110.75957 247.294306-247.315347 247.294306S287.208992 728.261532 287.208992 591.705755c0-75.116198 33.644482-142.320998 86.478312-187.68529C205.001993 339.298498 84.963363 176.18904 84.858159-15.409867l0-0.084164c0.105205-24.744159 10.962336-43.197074 35.664413-43.197074 24.912487 0 26.679927 17.884809 26.74305 42.607927 0 198.374093 119.218033 385.76481 387.237676 381.325169 81.34432-1.346621 176.659831-32.634516 234.77494-81.049746 15.780714-13.150595 19.252471-13.318922 26.30119-15.338854L799.093266 268.432572zM534.503298 413.299525c-127.718577 0.252491-189.116075 91.612304-189.116075 178.40623 0 86.751844 70.150533 188.316518 189.368566 188.316518 138.533626 0 189.368566-102.616722 189.368566-189.368566C724.124355 503.838741 643.495428 410.017137 534.503298 413.299525L534.503298 413.299525zM616.941747 149.509113c0-24.828323 20.136191-36.69542 44.964514-36.69542l239.86685 0c24.828323 0 44.964514 11.867097 44.964514 36.69542 0 24.870405-20.136191 34.317792-44.964514 34.317792l-239.86685 0C637.077938 183.826905 616.941747 174.379518 616.941747 149.509113L616.941747 149.509113zM901.773111 3.253457l-239.86685 0c-24.828323 0-44.964514-8.795118-44.964514-33.623441 0-24.870405 20.136191-33.896973 44.964514-33.896973l239.86685 0c24.828323 0 44.964514 9.047609 44.964514 33.896973C946.737625-5.541661 926.601434 3.253457 901.773111 3.253457L901.773111 3.253457zM901.773111 3.253457"  horiz-adv-x="1024" />

    
    <glyph glyph-name="shoukedidian" unicode="&#59615;" d="M512.252245 831.644273c-185.235818 0-335.396793-150.166091-335.396793-335.396793 0-140.229788 279.632745-559.278793 335.396793-558.993291 54.888098-0.285502 335.396793 420.644339 335.396793 558.993291C847.649038 681.478182 697.482947 831.644273 512.252245 831.644273L512.252245 831.644273zM512.252245 21.104923c-46.470381-0.237407-279.496645 358.284059-279.496645 475.142557 0 154.360623 125.136022 279.495622 279.496645 279.495622 154.360623 0 279.494599-125.136022 279.494599-279.495622C791.746844 380.952594 557.990962 20.867516 512.252245 21.104923L512.252245 21.104923zM512.252245 635.995291c-77.181847 0-139.749858-62.568011-139.749858-139.747811s62.568011-139.748834 139.749858-139.748834c77.178777 0 139.745764 62.569034 139.745764 139.748834C651.998009 573.429327 589.431022 635.995291 512.252245 635.995291L512.252245 635.995291zM512.252245 412.401864c-46.309722 0-83.84971 37.536918-83.84971 83.845617 0 46.309722 37.541011 83.847663 83.84971 83.847663 46.305629 0 83.847663-37.538965 83.847663-83.847663C596.098885 449.936735 558.557874 412.401864 512.252245 412.401864L512.252245 412.401864z"  horiz-adv-x="1024" />

    
    <glyph glyph-name="miaozhun" unicode="&#58904;" d="M988.484 408.265h-60.328c-2.676 47.8-13.379 94.263-32.11 138.293-21.042 49.625-51.084 94.141-89.276 132.455-38.313 38.313-82.83 68.356-132.455 89.276-44.030 18.609-90.492 29.434-138.293 32.11v60.45h-47.679v-60.328c-47.8-2.676-94.263-13.501-138.293-32.11-49.625-21.042-94.141-51.084-132.455-89.276s-68.599-82.83-89.641-132.455c-18.609-44.030-29.434-90.492-32.11-138.293l-60.328 0v-47.8h60.45c2.676-47.8 13.501-94.263 32.11-138.293 21.042-49.625 51.084-94.141 89.276-132.455 38.313-38.313 82.83-68.356 132.455-89.276 44.030-18.609 90.492-29.434 138.293-32.11v-60.45h47.679v60.45c47.8 2.676 94.263 13.379 138.293 32.11 49.625 21.042 94.141 51.084 132.455 89.276 38.313 38.313 68.356 82.83 89.276 132.455 18.609 44.030 29.434 90.492 32.11 138.293h60.328v47.679h0.243zM860.165 408.265h-103.507c-5.473 56.679-30.164 109.223-70.91 149.969-40.746 40.746-93.29 65.437-149.969 70.91v103.507c173.566-11.798 312.588-150.942 324.386-324.386v0zM511.939 186.413c-109.223 0-198.013 88.79-198.013 198.013 0 109.223 88.79 198.013 198.013 198.013 109.223 0 198.013-88.79 198.013-198.013 0-109.223-88.79-198.013-198.013-198.013v0zM488.1 732.651v-103.507c-56.679-5.473-109.223-30.164-149.969-70.91-40.746-40.746-65.437-93.29-70.788-149.969h-103.628c11.798 173.444 150.942 312.588 324.386 324.386v0zM163.714 360.465h103.507c5.473-56.679 30.164-109.223 70.91-149.969 40.746-40.746 93.29-65.437 149.969-70.91v-103.507c-173.444 11.92-312.588 150.942-324.386 324.386v0zM535.9 36.2v103.507c56.679 5.473 109.223 30.164 149.969 70.91 40.746 40.746 65.437 93.29 70.91 149.969l103.385-0c-11.798-173.566-150.821-312.588-324.265-324.386v0zM511.939 384.426v0zM431.785 384.426v0z"  horiz-adv-x="1024" />

    
    <glyph glyph-name="fasongzhifeiji" unicode="&#58920;" d="M1014.187886 401.031314 26.7648 785.034971c-5.999543 2.357029-12.571429 1.3568-17.642057-2.428343-5.070629-3.821714-7.786057-9.963886-7.213714-16.285257L34.192457 418.066286 842.971429 383.851886 33.872457 349.600914 1.9072 1.669486c-0.570514-6.3232 2.143086-12.465371 7.213714-16.287086 3.214629-2.428343 7.071086-3.679086 11.000686-3.679086 2.249143 0 4.500114 0.393143 6.6432 1.250743l987.423086 384.007314c6.999771 2.7136 11.642514 9.499429 11.642514 17.034971C1025.8304 391.531886 1021.187657 398.317714 1014.187886 401.031314z"  horiz-adv-x="1026" />

    
    <glyph glyph-name="quanping" unicode="&#58912;" d="M674.88 504.96l257.664 256.768-0.896-145.472c-0.32-12.096 9.408-22.72 21.504-22.4h15.36c12.16 0.384 22.208 7.488 22.4 19.712l0.704 216.704 0.384 11.52c0.192 6.016-1.28 11.52-5.12 15.424a20.736 20.736 0 0 1-15.488 6.208l-11.008-0.192c-0.192 0-0.32 0-0.512-0.128L744.96 863.936a23.104 23.104 0 0 1-22.336-22.528v-15.36a24.512 24.512 0 0 1 25.216-22.4l141.568-0.384-256.896-255.872a29.952 29.952 0 1 1 42.368-42.368zM350.144 263.03999999999996L92.352 7.039999999999964l0.896 144.768a21.504 21.504 0 0 1-21.504 22.4H55.424c-12.032-0.384-22.144-7.488-22.4-19.712l-0.64-216.832-0.384-11.52c-0.192-6.08 1.28-11.52 5.12-15.488 3.968-3.84 9.28-6.4 15.488-6.208l11.008 0.192c0.128 0 0.32 0 0.512 0.192l215.808-0.896a23.104 23.104 0 0 1 22.336 22.528v15.424a24.512 24.512 0 0 1-25.216 22.4l-141.568 0.32 256.704 255.872a30.016 30.016 0 0 1 0 42.432 29.248 29.248 0 0 1-42.048 0z m641.472-325.248l-0.512 216.832c-0.384 12.032-10.304 19.328-22.4 19.712h-15.36c-12.16 0.32-21.696-10.304-21.504-22.4l0.896-145.472-257.856 256.576a30.016 30.016 0 1 1-42.368-42.432l256.704-255.872-141.568-0.32a24.768 24.768 0 0 1-25.216-22.4v-15.36c0.384-12.16 10.304-22.208 22.4-22.592l214.848 0.896c0.192 0 0.384-0.192 0.512-0.192l11.008-0.192a20.352 20.352 0 0 1 15.488 6.208c3.84 3.904 5.312 9.408 5.12 15.488l-0.192 11.52zM135.68 803.2l141.632 0.384a24.768 24.768 0 0 1 25.216 22.4v15.36A23.36 23.36 0 0 1 280.064 864L64.128 863.104 63.616 863.232 52.608 863.424A20.352 20.352 0 0 1 37.12 857.216C33.28 853.376 31.808 847.808 32 841.792l0.32-11.52 0.512-216.832c0.192-12.096 10.304-19.392 22.4-19.712h16.32c12.032-0.384 21.632 10.24 21.44 22.4l-0.704 144.768 257.664-256.064a29.952 29.952 0 1 1 42.368 42.432l-256.768 256z"  horiz-adv-x="1024" />

    
    <glyph glyph-name="lookIcon" unicode="&#58959;" d="M512 119.055c-282.756 0-511.994 299.557-511.994 299.557s229.238 299.558 511.994 299.558c282.757 0 511.994-299.558 511.994-299.558s-229.237-299.557-511.994-299.557zM512 625.999c-237.517 0-430.074-207.387-430.074-207.387s192.557-207.388 430.074-207.388c237.518 0 430.075 207.388 430.075 207.388s-192.557 207.388-430.075 207.388zM696.318 418.612c0-114.495-82.518-207.388-184.318-207.388-101.797 0-184.318 92.893-184.318 207.388 0 114.585 82.52 207.388 184.318 207.388 101.8 0 184.318-92.802 184.318-207.387zM512 533.827c-56.56 0-102.398-51.576-102.398-115.215 0-63.637 45.839-115.216 102.398-115.216 56.56 0 102.4 51.579 102.4 115.216 0 63.639-45.84 115.215-102.4 115.215z"  horiz-adv-x="1024" />

    
    <glyph glyph-name="jifenzhekou" unicode="&#58884;" d="M512 204.8c-98.56 0-192 53.76-243.2 138.24-25.6 43.52-38.4 92.16-38.4 143.36C230.4 641.28 357.12 768 512 768c154.88 0 281.6-126.72 281.6-281.6 0-154.88-126.72-281.6-281.6-281.6z m0 537.6c-140.8 0-256-115.2-256-256 0-46.08 12.8-90.88 35.84-129.28C336.64 279.04 422.4 230.4 512 230.4c140.8 0 256 115.2 256 256s-115.2 256-256 256zM512 332.8c-84.48 0-153.6 69.12-153.6 153.6 0 84.48 69.12 153.6 153.6 153.6s153.6-69.12 153.6-153.6c0-84.48-69.12-153.6-153.6-153.6z m0 281.6c-70.4 0-128-57.6-128-128s57.6-128 128-128 128 57.6 128 128-57.6 128-128 128zM384 0c-3.84 0-7.68 1.28-10.24 5.12L288 115.2c-11.52 1.28-38.4 3.84-65.28 5.12-34.56 2.56-55.04 5.12-66.56 6.4h-2.56V128c-12.8 2.56-12.8 5.12-12.8 12.8 0 3.84 2.56 7.68 6.4 10.24 11.52 12.8 81.92 121.6 124.16 188.16 3.84 6.4 11.52 7.68 17.92 3.84 6.4-3.84 7.68-11.52 3.84-17.92-64-101.12-96-151.04-113.92-175.36 29.44-2.56 80.64-7.68 117.76-10.24 3.84 0 6.4-2.56 8.96-5.12l76.8-98.56 80.64 172.8c2.56 6.4 10.24 8.96 16.64 6.4 6.4-2.56 8.96-10.24 6.4-16.64l-89.6-192c-1.28-3.84-5.12-6.4-10.24-7.68C385.28 0 384 0 384 0zM640 0h-1.28c-3.84 0-7.68 3.84-10.24 7.68l-89.6 192c-2.56 6.4 0 14.08 6.4 16.64 6.4 2.56 14.08 0 16.64-6.4l80.64-172.8 76.8 98.56c2.56 2.56 5.12 5.12 8.96 5.12 37.12 3.84 88.32 7.68 117.76 10.24-17.92 24.32-49.92 74.24-113.92 175.36-3.84 6.4-2.56 14.08 3.84 17.92 6.4 3.84 14.08 2.56 17.92-3.84 42.24-66.56 111.36-174.08 124.16-188.16 3.84-2.56 6.4-6.4 6.4-10.24 0-6.4 0-10.24-12.8-12.8V128h-2.56c-11.52-2.56-32-3.84-66.56-6.4-26.88-2.56-53.76-5.12-65.28-5.12l-85.76-111.36c-3.84-3.84-7.68-5.12-11.52-5.12z"  horiz-adv-x="1024" />

    
    <glyph glyph-name="chakan1" unicode="&#58929;" d="M511.7952 539.0336c-208.0768 0-376.6272-153.6-376.6272-153.6s168.5504-153.6 376.6272-153.6 376.6272 153.6 376.6272 153.6-168.7552 153.6-376.6272 153.6z m-0.2048-282.4192c-152.9856 0-286.1056 89.2928-337.3056 128.6144 51.4048 39.5264 184.32 128.6144 337.3056 128.6144 153.3952 0 286.1056-89.2928 337.5104-128.6144-51.4048-39.3216-184.32-128.6144-337.5104-128.6144zM511.7952 482.0992c-53.4528 0-96.6656-43.2128-96.6656-96.6656s43.2128-96.6656 96.6656-96.6656 96.6656 43.2128 96.6656 96.6656-43.4176 96.6656-96.6656 96.6656z m0-174.8992c-43.008 0-78.0288 35.0208-78.0288 78.0288s35.0208 78.0288 78.0288 78.0288 78.0288-35.0208 78.0288-78.0288-35.0208-78.0288-78.0288-78.0288z"  horiz-adv-x="1024" />

    
    <glyph glyph-name="shouquanicon" unicode="&#58970;" d="M815.223 642.363l-298.096 106.201c-3.296 1.099-6.592 1.099-9.888 0l-298.096-106.201c-5.859-2.197-9.522-7.69-9.522-13.55v-308.35c0-45.045 16.845-89.355 49.804-131.104 25.636-32.592 61.523-64.088 105.834-93.383 75.073-49.438 149.048-75.439 152.343-76.537 1.465-0.366 3.296-0.732 4.761-0.732s3.296 0.366 4.761 0.732c2.93 1.099 77.27 27.098 152.344 76.537 44.678 29.298 80.201 60.425 105.834 93.383 32.959 41.747 49.804 86.060 49.804 131.104v308.35c0 5.859-4.027 11.353-9.888 13.55zM795.813 320.095c0-87.891-77.27-157.104-142.089-199.584-61.522-40.283-124.146-65.186-141.358-71.778-17.579 6.592-79.834 31.493-141.358 71.778-64.82 42.481-142.089 111.694-142.089 199.584v298.096l283.448 101.074 283.448-101.074v-298.096zM512.366 13.211c-2.197 0-4.394 0.366-6.592 1.099-3.296 1.099-77.636 27.467-153.442 76.905-45.044 29.663-81.299 61.157-107.3 94.482-33.69 42.846-50.903 88.257-50.903 134.4v308.35c0 8.422 5.493 16.113 13.183 19.043l298.096 106.201c4.395 1.465 9.156 1.465 13.55 0l298.096-106.201c8.057-2.93 13.183-10.253 13.183-19.043v-308.35c0-46.508-17.212-91.554-50.903-134.4-26.001-32.959-62.256-64.82-107.3-94.482-75.806-49.804-150.146-75.806-153.442-76.905-1.831-0.732-4.027-1.099-6.226-1.099zM512.366 743.802c-1.099 0-2.197 0-2.93-0.366l-298.096-106.201c-3.663-1.465-5.859-4.761-5.859-8.422v-308.35c0-43.944 16.48-86.793 48.706-127.807 25.268-32.228 60.425-62.989 104.737-91.919 74.707-49.072 147.95-74.707 150.879-75.806 1.831-0.732 4.027-0.732 5.859 0 2.93 1.099 76.537 26.734 150.879 75.806 43.944 28.931 79.467 59.692 104.737 91.919 31.859 40.649 48.34 83.862 48.34 127.442v308.35c0 3.663-2.565 7.324-5.859 8.423l-298.096 106.201c-1.099 0.732-2.197 0.732-3.296 0.732zM512.366 42.875l-1.831 0.732c-17.944 6.592-80.567 31.493-142.456 72.509-65.918 43.213-144.653 113.891-144.653 204.346v301.758l288.94 102.905 1.831-0.732 287.108-102.539v-301.758c0-90.455-78.736-160.767-144.653-204.346-61.89-40.649-124.879-65.553-142.456-72.509l-1.831-0.366zM234.413 614.164v-294.067c0-85.327 75.806-153.077 139.526-195.19 58.96-38.819 118.653-62.989 138.428-70.678 19.776 7.69 79.467 31.859 138.428 70.678 63.721 41.747 139.526 109.497 139.526 195.19v294.067l-277.954 99.243-277.954-99.243zM356.361 416.043c-5.493 5.859-14.648 6.226-20.508 0.366-5.859-5.493-6.226-14.648-0.366-20.508l125.244-131.47c2.93-2.93 6.592-4.395 10.62-4.395s7.69 1.465 10.62 4.395l208.007 218.993c5.493 5.859 5.127 15.014-0.366 20.508-5.859 5.493-15.014 5.127-20.508-0.366l-197.388-208.007-115.357 120.483zM470.985 254.544c-5.493 0-10.62 2.197-14.648 6.226l-125.244 131.47c-3.663 4.027-5.493 8.788-5.493 14.282s2.197 10.253 6.226 13.915 8.788 5.859 14.282 5.493c5.493 0 10.253-2.197 13.915-6.226l110.962-116.088 193.36 203.615c7.69 8.057 20.508 8.423 28.198 0.732 4.028-3.663 6.226-8.788 6.226-13.915s-1.831-10.62-5.493-14.282l-208.007-218.993c-3.296-4.028-8.788-6.226-14.282-6.226zM345.741 414.945c-2.197 0-4.395-0.732-6.226-2.565-1.831-1.831-2.93-4.027-2.93-6.226s0.732-4.761 2.564-6.592l125.244-131.47c3.296-3.663 9.888-3.663 13.183 0l208.007 218.993c1.831 1.831 2.564 4.028 2.564 6.592s-1.099 4.761-2.93 6.226c-3.663 3.296-9.522 3.296-12.817-0.366l-201.415-212.036-118.653 124.512c-1.831 2.197-4.027 2.93-6.592 2.93z"  horiz-adv-x="1024" />

    
    <glyph glyph-name="wodeshouquanshu" unicode="&#58897;" d="M511.998853 895.994037c-218.275532 0-395.225291-176.947466-395.225291-395.225291 0-218.273239 176.947466-395.225291 395.225291-395.225291s395.225291 176.953199 395.225291 395.225291C907.224144 719.046572 730.276679 895.994037 511.998853 895.994037zM511.998853 141.474174c-198.43251 0-359.294572 160.859769-359.294572 359.294572S313.566343 860.066759 511.998853 860.066759c198.430217 0 359.294572-160.862062 359.294572-359.298012S710.427924 141.474174 511.998853 141.474174zM511.998853 842.100826c-188.511573 0-341.329786-152.821654-341.329786-341.33208s152.818214-341.33208 341.329786-341.33208 341.326346 152.821654 341.326346 341.33208S700.509279 842.100826 511.998853 842.100826zM511.998853 177.404893c-178.589489 0-323.367294 144.777805-323.367294 323.363854 0 178.592929 144.777805 323.367294 323.367294 323.367294 178.592929 0 323.369587-144.774365 323.369587-323.367294C835.36844 322.181551 690.590635 177.404893 511.998853 177.404893zM673.67734-74.104404l-161.679634 89.82393-161.681927-89.82393L350.31578 126.647808c-21.402485 8.410781-35.930719 14.826366-35.930719 14.826366l0-269.470643 197.612645 107.786422 197.616085-107.786422L709.613792 141.474174c0 0-14.189968-5.406521-35.936452-12.791038L673.67734-74.104404zM332.350994 536.699465l0-53.895505 143.717141-125.751208 233.545657 215.578578 0 53.893211L476.068135 410.944817 332.350994 536.699465z"  horiz-adv-x="1024" />

    
    <glyph glyph-name="rizhi" unicode="&#58892;" d="M89.6 473.6v-172.8c0-19.2 12.8-32 25.6-32s25.6 12.8 25.6 32V473.6c0 19.2-12.8 32-25.6 32s-25.6-12.8-25.6-32z m-64 57.6H192c12.8 0 25.6 12.8 25.6 32s-6.4 32-25.6 32H25.6c-12.8 0-25.6-19.2-25.6-32s12.8-32 25.6-32z m198.4-320c0 19.2-12.8 32-25.6 32H25.6c-12.8 0-25.6-12.8-25.6-32s12.8-32 25.6-32H192c19.2 0 32 12.8 32 32z m128 320h339.2c12.8 0 25.6 12.8 25.6 32s-12.8 32-25.6 32H352c-12.8 0-25.6-19.2-25.6-32s12.8-32 25.6-32z m0-172.8h339.2c12.8 0 25.6 12.8 25.6 32s-12.8 32-25.6 32H352c-12.8-6.4-25.6-19.2-25.6-38.4 0-12.8 12.8-25.6 25.6-25.6z m0-179.2h339.2c12.8 0 25.6 12.8 25.6 32s-12.8 32-25.6 32H352c-12.8 0-25.6-12.8-25.6-32s12.8-32 25.6-32z m582.4 320v192c0 76.8-57.6 140.8-134.4 140.8h-576C147.2 832 89.6 768 89.6 691.2v-38.4c0-19.2 12.8-32 25.6-32s25.6 12.8 25.6 32v38.4c0 44.8 32 83.2 76.8 83.2h582.4c44.8 0 76.8-38.4 76.8-83.2v-198.4c-44.8-12.8-76.8-57.6-76.8-108.8 0-51.2 32-96 76.8-115.2v-192c0-44.8-32-83.2-76.8-83.2h-576c-44.8 0-76.8 38.4-76.8 83.2v44.8c0 19.2-12.8 32-25.6 32s-25.6-12.8-25.6-32v-44.8c-6.4-76.8 51.2-140.8 128-140.8h582.4c76.8 0 134.4 64 134.4 140.8v192c44.8 12.8 83.2 57.6 83.2 115.2s-38.4 102.4-89.6 115.2z m-19.2-172.8c-32 0-57.6 25.6-57.6 57.6s25.6 57.6 57.6 57.6 57.6-25.6 57.6-57.6c-6.4-32-32-57.6-57.6-57.6z"  horiz-adv-x="1024" />

    
    <glyph glyph-name="xiaozhunjieguo" unicode="&#59030;" d="M511.221264 36.587546c-192.20044 0-348.606653 156.406213-348.606653 348.606652s156.406213 348.606653 348.606653 348.606653 348.606653-156.406213 348.606653-348.606653-156.406213-348.606653-348.606653-348.606652z m0 677.292603c-181.228551 0-328.685951-147.4574-328.685951-328.685951s147.4574-328.685951 328.685951-328.685951 328.685951 147.4574 328.685951 328.685951-147.4574 328.685951-328.685951 328.685951zM501.261425 487.286388h19.920702v-204.183356h-19.920702zM409.051303 395.154038H613.31243v-19.920702H409.051303zM501.261425 833.402313h19.920702v-219.123626h-19.920702zM501.261425 156.10971h19.920702v-219.123627h-19.920702zM740.305753 395.154038h219.123626v-19.920702H740.305753zM63.013149 395.154038h219.123626v-19.920702H63.013149z"  horiz-adv-x="1024" />

    
    <glyph glyph-name="delete_member" unicode="&#58900;" d="M512.00064 417.28a239.36 239.36 0 1 1-239.36 239.36A239.36 239.36 0 0 1 512.00064 417.28zM813.44064 320A512 512 0 0 1 0.00064-94.72V-128h664.32a256 256 0 0 0 149.12 448zM960.00064 128h-256a64 64 0 0 1 0-128h256a64 64 0 0 1 0 128z"  horiz-adv-x="1024" />

    
    <glyph glyph-name="sanjiaojiantou" unicode="&#58902;" d="M377.856 347.648L256.512 669.696l593.92-322.048-593.92-322.048 121.344 322.048z"  horiz-adv-x="1024" />

    
    <glyph glyph-name="bijibendiannao" unicode="&#58917;" d="M1278.598028 123.794085l2.243155 610.138007c0 8.972618-7.851041 16.26287-17.384447 16.26287h-947.732749c-9.533406 0-17.384447-7.290252-17.384447-16.26287l-2.243154-610.138007H156.460022v-25.796276c0-8.972618 7.851041-16.26287 17.384447-16.262869h1232.613362c9.533406 0 17.384447 7.290252 17.384447 16.262869v25.796276H1278.598028z m-601.726177-3.92552v28.600219h225.437021v-28.600219h-225.437021z m565.274918 54.957284H333.108434l2.243154 540.600219h909.038335l-2.243154-540.600219z"  horiz-adv-x="1633" />

    
    <glyph glyph-name="icon_xiazai" unicode="&#58946;" d="M911.6 293.5c0 0.1 0 0.1 0 0V802.6c0 16.3-13.3 29.6-29.6 29.6H107.1c-16.3 0-29.6-13.3-29.6-29.6V293.5c0-16.9 13.8-30.6 30.6-30.6h110.4c16.9 0 30.6 13.8 30.6 30.6 0 16.9-13.8 30.6-30.6 30.6h-79.8V770.9h711.5v-446.7h-79.8c-16.9 0-30.6-13.8-30.6-30.6 0-16.9 13.8-30.6 30.6-30.6h110.4c17-0.2 30.8 13.6 30.8 30.5zM641.1 185.6c-14 9.4-33.1 5.6-42.5-8.4l-73-109V586.7c0 16.9-13.8 30.6-30.6 30.6-16.9 0-30.6-13.8-30.6-30.6v-519.4l-73.7 110c-9.4 14-28.5 17.8-42.5 8.4s-17.8-28.5-8.4-42.5l129.8-193.8c3.1-4.7 7.4-8.2 12.1-10.5h0.1c0.3-0.1 0.6-0.3 0.9-0.4l0.6-0.3c0.1-0.1 0.3-0.1 0.4-0.2 3.4-1.4 7.1-2.1 10.9-2.2h0.5c5.8 0 11.7 1.7 16.9 5.2 5.2 3.5 9 8.3 11.2 13.8l126.2 188.4c9.4 13.9 5.7 33.1-8.3 42.4z"  horiz-adv-x="1024" />

    
    <glyph glyph-name="kai" unicode="&#58986;" d="M511.63 895.998h998.94c282.567 0 511.632-229.241 511.632-512.004 0-282.77-229.065-511.992-511.631-511.992H511.63C229.064-127.998 0 101.223 0 383.994 0 666.757 229.072 895.998 511.63 895.998z m998.94-979.77c257.745 0 467.427 209.845 467.427 467.766 0 257.935-209.682 467.766-467.426 467.766-257.745 0-467.425-209.831-467.425-467.766 0-257.92 209.68-467.766 467.425-467.766z"  horiz-adv-x="2023" />

    
    <glyph glyph-name="yichuyonghu" unicode="&#58974;" d="M847.29272 564.704c-56.992 0-113.984 0.064-170.944-0.128-5.12 0-6.56 1.28-6.496 6.464 0.288 23.36 0.224 46.72 0.032 70.048-0.032 4.64 0.768 6.432 6.016 6.4 114.528-0.16 229.056-0.16 343.584 0 4.96 0 6.304-1.312 6.24-6.24a3056.32 3056.32 0 0 1 0-70.624c0.064-5.184-1.664-6.048-6.368-6.048-57.344 0.16-114.72 0.128-172.064 0.128z m-49.6-571.68c1.536 45.184-0.832 90.08-12.672 133.952-33.056 122.528-105.12 213.6-219.232 270.496-12.832 6.4-26.208 11.552-40.736 16.8 9.632 8.512 18.304 16.544 25.504 25.824 55.776 71.968 64.928 149.984 25.664 231.712C525.91672 776.48 396.79672 814.816 298.71672 754.88c-60.48-36.992-93.568-92.352-98.912-162.944-5.28-69.568 18.816-128.192 70.688-175.168 0.736-0.672 2.08-1.12 1.568-2.816l-2.912-1.216C133.46872 360.352 49.21272 262.304 12.25272 122.592 0.92472 79.776-0.70728 35.936 0.22072-8.096c0.128-5.984 1.856-7.168 7.488-7.168 260.896 0.128 521.76 0.128 782.656 0.128 0.928 0 1.888 0.096 2.816-0.032 3.328-0.48 4.96 0.672 4.48 4.256-0.16 1.28 0 2.624 0.032 3.936zM267.67672 541.056c-16.224 64.256 14.912 132.928 73.312 161.504 66.496 32.544 145.472 4.704 179.04-63.168 38.656-78.144-0.992-173.312-82.688-198.496-12.416-3.84-25.088-5.728-35.072-5.6-65.152-0.064-118.784 43.04-134.592 105.76zM728.34872 51.744c-1.472 0.128-2.976 0.032-4.48 0.032H399.22872c-108.96 0-217.92 0.032-326.88-0.128-5.504 0-6.432 1.696-5.888 6.656 8.064 72.736 34.816 137.6 82.592 193.184 53.568 62.272 120.8 101.728 202.336 113.056 111.968 15.584 207.776-19.2 286.016-100.224 55.904-57.888 86.24-128.256 94.528-208.192 0.352-3.168-0.16-4.704-3.584-4.384z"  horiz-adv-x="1025" />

    
    <glyph glyph-name="xitongpeizhi" unicode="&#58945;" d="M782.33 1.91a85.51 85.51 0 0 1 60.91 25.22l25.62 25.55a86.27 86.27 0 0 1-0.16 122.21c-8.47 8.47-10.82 21.31-5.74 31.29a391.15 391.15 0 0 1 23.17 55.73c3.43 10.52 14.21 17.83 26.21 17.83a86.42 86.42 0 0 1 86.29 86.17v36.18a86.29 86.29 0 0 1-86.17 86.22v-28.91l-0.14 28.91c-12 0-22.75 7.39-26.21 17.95a391 391 0 0 1-23.15 55.59c-5.15 10.16-2.85 22.8 5.83 31.48a86.16 86.16 0 0 1 0.12 121.88l-25.64 25.71a86.3 86.3 0 0 1-122.1-0.16c-8.54-8.47-21.36-10.87-31.36-5.74a403.13 403.13 0 0 1-55.68 23.15c-10.54 3.43-17.88 14.21-17.88 26.16a86.18 86.18 0 0 1-86.17 86.29h-36.29a86.18 86.18 0 0 1-86.13-86.36c0-12-7.34-22.73-17.86-26.18a396.23 396.23 0 0 1-55.71-23.15c-10-5.13-22.87-2.71-31.41 5.86a86.4 86.4 0 0 1-121.93 0.09l-25.6-25.58c-33.59-33.59-33.64-88.29 0.16-122.19 8.47-8.47 10.82-21.34 5.74-31.31a395.3 395.3 0 0 1-23.15-55.68c-3.43-10.52-14.23-17.86-26.23-17.86a86.46 86.46 0 0 1-86.29-86.17v-36.18a86.35 86.35 0 0 1 86.36-86.24c12 0 22.73-7.39 26.18-17.9a393.24 393.24 0 0 1 23.08-55.6c5-9.83 3-21.93-4.8-30.54l-1-1a86.21 86.21 0 0 1-0.07-121.93l25.6-25.64a86.36 86.36 0 0 1 122.07 0.14c8.54 8.52 21.36 10.92 31.41 5.76a400 400 0 0 1 55.68-23.15c10.52-3.43 17.88-14.23 17.88-26.16A86.14 86.14 0 0 1 494-102.62h36.3a86.1 86.1 0 0 1 86.1 86.36c0 12 7.34 22.73 17.78 26.14a388.36 388.36 0 0 1 55.75 23.17c10 5.06 22.89 2.73 31.43-5.86a85.8 85.8 0 0 1 60.93-25.29zM663.69 84.6a330.94 330.94 0 0 0-47.52-19.76c-34.46-11.32-57.64-43.9-57.64-81.35a28.27 28.27 0 0 0-28.35-28.28H494a28.31 28.31 0 0 0-28.35 28.39c0 37.29-23.22 69.92-57.71 81.16a340 340 0 0 0-47.45 19.74 82.27 82.27 0 0 1-37.59 9.06 86.75 86.75 0 0 1-61.12-25.67 28 28 0 0 0-20-8.26 28.3 28.3 0 0 0-20.09 8.3l-25.57 25.62a28.44 28.44 0 0 0-1 39.1l1.18 1.18c26.3 26.4 32.89 66 16.35 98.55a332.35 332.35 0 0 0-19.71 47.4c-11.29 34.44-43.85 57.64-81.3 57.71a28.41 28.41 0 0 0-28.35 28.42V402a28.51 28.51 0 0 0 28.47 28.42c37.24 0 69.87 23.17 81.19 57.66a332.91 332.91 0 0 0 19.71 47.45c16.56 32.54 10 72.08-16.59 98.66a28.48 28.48 0 0 0 0 40.18l25.6 25.55a28.54 28.54 0 0 0 40.23-0.07c26.4-26.42 66-33 98.48-16.49a337.39 337.39 0 0 0 47.52 19.76c34.49 11.32 57.66 43.9 57.66 81.3a28.07 28.07 0 0 0 8.33 20.07c5.36 5.36 13.76 6.78 20.07 8.28h36.18a28.35 28.35 0 0 0 28.35-28.42c0-37.26 23.2-69.87 57.66-81.14a341.27 341.27 0 0 0 47.5-19.74c32.35-16.54 72-10 98.69 16.59 5.34 5.36 10.45 9 20 8.28a28.29 28.29 0 0 0 20-8.3L828 674.35a28.37 28.37 0 0 0-0.19-40.25c-26.32-26.35-32.91-65.92-16.37-98.48a335.15 335.15 0 0 0 19.74-47.38c11.24-34.44 43.78-57.64 81-57.75h0.24a28.39 28.39 0 0 0 28.35-28.39V366a28.49 28.49 0 0 0-28.47-28.39c-37.26 0-69.89-23.2-81.16-57.66a332.39 332.39 0 0 0-19.74-47.47c-16.56-32.51-10-72.06 16.59-98.66a28.43 28.43 0 0 0 0-40.16L802.37 68a28.22 28.22 0 0 0-20-8.3 28.38 28.38 0 0 0-20.14 8.4c-26.41 26.45-66.01 33.03-98.54 16.5zM512 574c-104.76 0-190-85.22-190-190s85.23-190 190-190 190 85.2 190 190-85.22 190-190 190z m0-322.25c-72.88 0-132.16 59.31-132.16 132.19S439.12 516.21 512 516.21 644.19 456.9 644.19 384 584.88 251.79 512 251.79z"  horiz-adv-x="1024" />

    
    <glyph glyph-name="iconfontshanchu" unicode="&#58880;" d="M660.495544 533.172461l49.67026 0 0-397.340587-49.67026 0 0 397.340587ZM536.32757 135.83187399999997L536.32757 533.172461 511.493975 533.172461 486.661404 533.172461 486.661404 135.83187399999997 511.493975 135.83187399999997ZM312.824193 533.172461l49.669236 0 0-397.340587-49.669236 0 0 397.340587ZM710.165804 682.173007L710.165804 781.508409c0 27.306926-22.338774 49.666166-49.67026 49.666166L362.493429 831.174576c-27.331485 0-49.669236-22.360264-49.669236-49.666166l0-99.335403L64.488245 682.173007l0-49.668213 99.336426 0 0-645.675512c0-27.308973 22.334681-49.668213 49.666166-49.668213l596.008322 0c27.331485 0 49.67026 22.360264 49.67026 49.668213L859.169419 632.505817l99.332333 0 0 49.668213L710.165804 682.17403zM362.493429 781.508409l298.002115 0 0-99.335403L362.493429 682.173007 362.493429 781.508409zM809.498136-13.169695000000047L213.489814-13.169695000000047 213.489814 632.505817l596.008322 0L809.498136-13.169695000000047z"  horiz-adv-x="1024" />

    
    <glyph glyph-name="xuanzhong" unicode="&#59294;" d="M509.44 828.4159999999999c-245.76 0-445.95199999999994-200.192-445.95199999999994-445.95199999999994 0-245.76 200.192-445.95199999999994 445.95199999999994-445.95199999999994s445.95199999999994 200.192 445.95199999999994 445.95199999999994c0 245.76-200.192 445.95199999999994-445.95199999999994 445.95199999999994z m215.03999999999996-372.736l-256-259.072h-0.512v-0.512c-2.048-2.048-4.608-3.072-7.168-4.608-1.024-0.512-2.048-1.536-3.584-2.048-3.584-1.536-7.68-2.56-11.776-2.56-4.096 0-8.192 1.024-12.288 2.56-1.024 0.512-2.048 1.536-3.584 2.048-2.56 1.536-4.608 2.56-6.656 4.608v0.512h-0.512l-125.95199999999998 129.536c-12.288 12.8-12.288 32.768 0.512 45.056 12.8 12.288 32.768 12.288 45.056-0.512L445.43999999999994 264.70399999999995l233.472 236.032c12.288 12.8 32.768 12.8 45.056 0.512 12.8-12.8 12.8-32.768 0.512-45.568z"  horiz-adv-x="1024" />

    
    <glyph glyph-name="radio" unicode="&#58885;" d="M513.357416 832.363657c-246.954485 0-447.153086-200.197578-447.153086-447.153086s200.198601-447.15411 447.153086-447.15411c246.954485 0 447.153086 200.198601 447.153086 447.15411S760.311901 832.363657 513.357416 832.363657L513.357416 832.363657zM513.357416-9.031444999999962c-217.735 0-394.246109 176.505993-394.246109 394.243039S295.622416 779.45975 513.357416 779.45975c217.735 0 394.242016-176.512133 394.242016-394.248156S731.092415-9.031444999999962 513.357416-9.031444999999962L513.357416-9.031444999999962zM513.357416-9.031444999999962"  horiz-adv-x="1024" />

    
    <glyph glyph-name="chakan" unicode="&#58925;" d="M1012.608-23.36l-179.2 181.76a330.368 330.368 0 0 1-21.12 440.32c-128 129.92-337.28 131.84-467.2 3.84-129.92-128-131.84-337.28-3.84-467.84a331.264 331.264 0 0 1 439.68-28.16l179.2-181.76c14.72-15.36 39.04-16 53.12-1.92 14.72 14.08 14.08 38.4-0.64 53.76z m-259.2 203.52c-98.56-100.48-257.92-99.2-355.2 3.84s-96 268.8 1.92 369.28c98.56 100.48 257.92 98.56 355.2-3.84 97.28-103.04 96.64-268.8-1.92-369.28zM962.112 895.808H61.888c-34.176 0-61.888-28.672-61.888-64v-893.568c0-35.328 27.712-63.936 61.888-63.936h546.048a28.416 28.416 0 0 1 4.032-0.256h66.688c18.56 0 33.664 15.488 33.664 34.624s-15.04 34.624-33.664 34.624H611.968a42.624 42.624 0 0 1-4.032-0.256h-29.632l-510.272 1.088L67.84 827.584l888.192-1.088v-231.232c0-18.944 15.168-34.368 33.92-34.368 18.752 0 33.92 15.36 33.92 34.368v10.048H1024V831.808c0 35.328-27.712 64-61.888 64z"  horiz-adv-x="1024" />

    
    <glyph glyph-name="ban" unicode="&#59052;" d="M512 744c48.6 0 95.8-9.5 140.1-28.3 42.9-18.1 81.4-44.1 114.5-77.2 33.1-33.1 59.1-71.6 77.2-114.5 18.7-44.2 28.2-91.4 28.2-140s-9.5-95.8-28.3-140.1c-18.1-42.9-44.1-81.4-77.2-114.5-33.1-33.1-71.6-59.1-114.5-77.2-44.2-18.7-91.4-28.2-140-28.2s-95.8 9.5-140.1 28.3c-42.9 18.1-81.4 44.1-114.5 77.2-33.1 33.1-59.1 71.6-77.2 114.5-18.7 44.2-28.2 91.4-28.2 140s9.5 95.8 28.3 140.1c18.1 42.9 44.1 81.4 77.2 114.5s71.6 59.1 114.5 77.2c44.2 18.7 91.4 28.2 140 28.2M512 824c-243 0-440-197-440-440s197-440 440-440 440 197 440 440-197 440-440 440zM229.2 723.4l-56.6-56.6 622.3-622.3 56.6 56.6-622.3 622.3z"  horiz-adv-x="1024" />

    
    <glyph glyph-name="user-defined" unicode="&#58895;" d="M420.864 347.136h-226.304c-33.792 0-61.44-27.648-61.44-60.416v-221.184c0-33.792 27.648-60.416 61.44-60.416h226.304c33.792 0 61.44 27.648 61.44 60.416v221.184c0 33.792-27.648 60.416-61.44 60.416zM420.864 65.536h-226.304v223.232h226.304v-223.232zM823.296 347.136h-220.16c-33.792 0-61.44-27.648-61.44-60.416v-221.184c0-33.792 27.648-60.416 61.44-60.416h226.304c33.792 0 61.44 27.648 61.44 60.416v221.184c0 33.792-33.792 60.416-67.584 60.416zM829.44 65.536h-225.28v221.184h225.28v-221.184zM829.44 752.64h-225.28c-33.792 0-63.488-25.6-63.488-59.392v-223.232c0-33.792 29.696-60.416 63.488-60.416h225.28c33.792 0 61.44 27.648 61.44 60.416v223.232c0 33.792-27.648 59.392-61.44 59.392zM829.44 471.040h-225.28v222.208h225.28v-222.208zM420.864 752.64h-226.304c-33.792 0-61.44-25.6-61.44-59.392v-219.136c0-33.792 27.648-64.512 61.44-64.512h226.304c33.792 0 61.44 30.72 61.44 64.512v219.136c0 33.792-27.648 59.392-61.44 59.392zM420.864 471.040h-226.304v222.208h226.304v-222.208z"  horiz-adv-x="1024" />

    
    <glyph glyph-name="miaozhun1" unicode="&#58896;" d="M837.90664 402.426892h-39.164747c-9.487112 143.158095-124.305499 257.976482-267.463594 267.463594v39.164746c0 10.46015-8.514075 18.974225-18.974225 18.974225h-0.364889c-10.46015 0-18.974225-8.514075-18.974225-18.974225v-39.164746C349.685236 660.403373 234.866849 545.584986 225.379736 402.426892H186.21499c-10.46015 0-18.974225-8.514075-18.974225-18.974225v-0.364889c0-10.46015 8.514075-18.974225 18.974225-18.974225H225.379736C234.866849 220.955458 349.685236 106.137071 492.843331 96.649958v-39.164746c0-10.46015 8.514075-18.974225 18.974225-18.974225h0.364888c10.46015 0 18.974225 8.514075 18.974225 18.974225v39.164746c143.158095 9.487112 257.976482 124.305499 267.463595 267.463595h39.164746c10.46015 0 18.974225 8.514075 18.974225 18.974225v0.364889c0 10.46015-8.392446 18.974225-18.852595 18.974225z m-96.938829 0h-33.691412c-9.000594 93.04668-83.194679 167.119135-176.241359 176.241358v33.569783c111.656016-9.243853 200.688918-98.398385 209.932771-209.811141z m-123.818981-38.313339h61.301342c-8.878964-77.113196-70.180306-138.414539-147.293503-147.293503V278.121392c0 10.46015-8.514075 18.974225-18.974225 18.974225h-0.364888c-10.46015 0-18.974225-8.514075-18.974225-18.974225v-61.301342c-77.113196 8.878964-138.414539 70.180306-147.293503 147.293503h61.301342c10.46015 0 18.974225 8.514075 18.974225 18.974225v0.364889c0 10.46015-8.514075 18.974225-18.974225 18.974225h-61.301342c8.878964 77.113196 70.180306 138.414539 147.293503 147.293502v-61.301342c0-10.46015 8.514075-18.974225 18.974225-18.974225h0.364888c10.46015 0 18.974225 8.514075 18.974225 18.974225v61.301342c77.113196-8.878964 138.414539-70.180306 147.293503-147.293502h-61.301342c-10.46015 0-18.974225-8.514075-18.974225-18.974225v-0.364889c0-10.46015 8.514075-18.974225 18.974225-18.974225z m-124.305499 248.12448V578.546621c-93.04668-9.000594-167.119135-83.194679-176.241359-176.241359h-33.569783c9.243853 111.534387 98.398385 200.688918 209.811142 209.932771z m-209.811142-248.12448h33.691412c9.000594-93.04668 83.194679-167.119135 176.241359-176.241359v-33.691412c-111.534387 9.365483-200.688918 98.398385-209.932771 209.932771z m248.12448-209.811142v33.691412c93.04668 9.000594 167.119135 83.194679 176.241359 176.241359H741.089441c-9.365483-111.656016-98.398385-200.688918-209.932772-209.932771z"  horiz-adv-x="1024" />

    
    <glyph glyph-name="buquanping" unicode="&#58886;" d="M968.920347 886.491683L694.235633 612.749235l0.942266 155.13119c0.385472 12.849077-9.993727 24.270479-22.842804 23.842176H655.874c-12.849077-0.371196-23.642302-7.952151-23.842177-21.001102l-0.756668-230.997852c0-0.185598 0.942266-0.371196 0.942266-0.57107l-1.327738-11.735491c-0.185598-6.424539 1.327738-12.292284 5.482273-16.461095a22.071859 22.071859 0 0 1 16.461095-6.624413l11.735491 0.185598a0.699561 0.699561 0 0 1 0.57107 0.185598l229.099044-0.942266A24.670228 24.670228 0 0 1 917.995171 527.802559v16.461095c-1.898808 15.318955-14.005494 24.270479-26.868847 23.842176l-150.976656 0.371196L1014.091991 841.277209a31.965648 31.965648 0 0 1 0 45.214474 31.637283 31.637283 0 0 1-45.214474 0M54.251659-117.96349999999995l274.827481 272.800182-0.942266-154.374522c-0.371196-12.849077 9.993727-24.270479 22.842804-23.842176h17.403361c12.849077 0.371196 23.642302 7.952151 23.842176 21.001102l0.756668 231.18345c0 0.185598-0.942266 0.385472-0.942265 0.57107l1.327738 11.73549c0.185598 6.438815-1.327738 12.292284-5.482273 16.461096a22.057582 22.057582 0 0 1-16.446819 6.624413l-11.721214-0.185598a0.699561 0.699561 0 0 1-0.57107-0.185598l-230.055586 0.942266A24.670228 24.670228 0 0 1 105.276771 240.69707000000005v-16.461095c1.898808-15.318955 14.005494-24.270479 26.868848-23.827899l150.962379-0.385473L9.365549-72.74902599999996a31.979925 31.979925 0 0 1 0-45.214474 31.180427 31.180427 0 0 1 44.843279 0m576.780792 346.625268l0.571071-231.183449c0.385472-12.849077 10.978823-20.61563 23.842176-21.001103h16.461095c12.849077-0.371196 23.071232 10.978823 22.842804 23.842176l-0.856605 155.131191 274.884588-273.556851a31.979925 31.979925 0 1 1 45.214475 45.214475L740.206775 199.90838900000006l150.976656 0.385473c12.849077-0.385472 24.784442 8.694542 26.854571 23.827899v16.461095a24.927209 24.927209 0 0 1-23.842177 24.027775l-229.099043-0.942266c-0.185598 0-0.371196 0.185598-0.57107 0.185598l-11.735491 0.185597a21.657833 21.657833 0 0 1-16.461095-6.624413c-4.154535-4.168812-5.710701-9.993727-5.482273-16.461095l1.327738-11.73549c-0.185598-0.185598-1.14214-0.385472-1.14214-0.57107m-347.93873 339.786704l-150.962379-0.371196c-12.849077 0.371196-24.784442-8.708819-26.868847-23.842176v-16.461095a24.941486 24.941486 0 0 1 23.842176-24.027775l230.241184 0.942266c0.185598 0 0.385472-0.185598 0.57107-0.185598l11.721214-0.185597a21.657833 21.657833 0 0 1 16.446818 6.624413c4.168812 4.168812 5.710701 9.993727 5.482273 16.461095l-1.327738 11.73549c0 0.185598 0.942266 0.385472 0.942266 0.57107L392.610688 770.84999c-0.185598 12.849077-10.964546 20.61563-23.842177 21.001102h-17.36053c-12.849077 0.385472-23.085508-10.978823-22.842804-23.842176l0.756668-154.374523L54.580024 886.634451A31.971359 31.971359 0 1 1 9.365549 841.419976L283.107998 568.4341959999999M110.502063 831.297759z"  horiz-adv-x="1024" />

    
    <glyph glyph-name="meitizhuanma" unicode="&#59357;" d="M691.2 448L448 576c-12.8 6.4-32 12.8-44.8 12.8-32 0-64-19.2-64-70.4v-256c0-51.2 32-70.4 64-70.4 12.8 0 32 6.4 44.8 12.8l243.2 128c25.6 12.8 44.8 38.4 44.8 57.6 0 19.2-12.8 38.4-44.8 57.6z m-25.6-83.2l-243.2-128c-12.8-6.4-19.2-6.4-19.2-6.4-19.2 0-19.2 19.2-19.2 25.6V512c0 12.8 0 25.6 19.2 25.6 6.4 0 12.8 0 19.2-6.4l243.2-128c12.8-6.4 19.2-12.8 19.2-19.2 0-6.4-6.4-12.8-19.2-19.2zM947.2 320c6.4 19.2 6.4 38.4 6.4 64 0 249.6-198.4 448-441.6 448-140.8 0-268.8-64-345.6-172.8h102.4c64 57.6 153.6 96 243.2 96 204.8 0 371.2-166.4 371.2-371.2 0-25.6 0-44.8-6.4-64h-76.8l115.2-198.4L1024 320h-76.8zM512 12.799999999999955c-198.4 0-358.4 160-371.2 358.4h83.2l-108.8 192L0 364.79999999999995h70.4C76.8 128 275.2-64 512-64c140.8 0 268.8 70.4 352 172.8h-102.4c-64-64-153.6-96-249.6-96z"  horiz-adv-x="1024" />

    
    <glyph glyph-name="shishizhuanma" unicode="&#58898;" d="M46.933333 426.666667C68.266667 665.6 268.8 853.333333 512 853.333333s443.733333-187.733333 465.066667-426.666666h42.666666C998.4 691.2 780.8 896 512 896S25.6 691.2 4.266667 426.666667h42.666666zM964.266667 256c-55.466667-196.266667-234.666667-341.333333-452.266667-341.333333s-396.8 145.066667-452.266667 341.333333h-42.666666c55.466667-221.866667 256-384 494.933333-384s439.466667 162.133333 494.933333 384h-42.666666zM388.266667 166.4V597.333333l362.666666-217.6-362.666666-213.333333z m38.4 362.666667v-298.666667l251.733333 149.333333L426.666667 529.066667z m0 0"  horiz-adv-x="1024" />

    
    <glyph glyph-name="cascader" unicode="&#59061;" d="M857.6 603.73333333c35.41333333 0 64 28.58666667 64 64V757.33333333c0 35.41333333-28.58666667 64-64 64H166.4c-35.41333333 0-64-28.58666667-64-64v-89.6c0-35.41333333 28.58666667-64 64-64h72.53333333v-578.13333333h136.53333334v-14.93333333c0-35.41333333 28.58666667-64 64-64h418.13333333c35.41333333 0 64 28.58666667 64 64v89.6c0 35.41333333-28.58666667 64-64 64H439.46666667c-35.41333333 0-64-28.58666667-64-64v-14.93333334h-76.8V354.13333333h76.8v-14.93333333c0-35.41333333 28.58666667-64 64-64h418.13333333c35.41333333 0 64 28.58666667 64 64v89.6c0 35.41333333-28.58666667 64-64 64H439.46666667c-35.41333333 0-64-28.58666667-64-64v-14.93333333h-76.8v189.86666666h558.93333333zM435.2 100.26666666999995c0 2.34666667 1.92 4.26666667 4.26666667 4.26666666h418.13333333c2.34666667 0 4.26666667-1.92 4.26666667-4.26666666v-89.6c0-2.34666667-1.92-4.26666667-4.26666667-4.26666667H439.46666667c-2.34666667 0-4.26666667 1.92-4.26666667 4.26666667v89.6z m0 328.53333333c0 2.34666667 1.92 4.26666667 4.26666667 4.26666667h418.13333333c2.34666667 0 4.26666667-1.92 4.26666667-4.26666667v-89.6c0-2.34666667-1.92-4.26666667-4.26666667-4.26666667H439.46666667c-2.34666667 0-4.26666667 1.92-4.26666667 4.26666667v89.6zM166.4 663.46666667c-2.34666667 0-4.26666667 1.92-4.26666667 4.26666666V757.33333333c0 2.34666667 1.92 4.26666667 4.26666667 4.26666667h691.2c2.34666667 0 4.26666667-1.92 4.26666667-4.26666667v-89.6c0-2.34666667-1.92-4.26666667-4.26666667-4.26666666H166.4z"  horiz-adv-x="1024" />

    


  </font>
</defs>
</svg>
